<svg width="111" height="37" viewBox="0 0 111 37" fill="none" xmlns="http://www.w3.org/2000/svg">
<g clip-path="url(#clip0_337_1068)">
<path d="M102.022 0.0167209H9.66902C9.33238 0.0167209 8.99978 0.0167209 8.66404 0.0185569C8.38299 0.020393 8.10417 0.0257267 7.82042 0.0302158C7.20399 0.0374698 6.589 0.0917011 5.98081 0.192439C5.37347 0.295369 4.78516 0.489423 4.23577 0.768036C3.68705 1.04901 3.18567 1.4141 2.74982 1.85007C2.31168 2.28481 1.94646 2.78731 1.66819 3.33825C1.38916 3.8881 1.19568 4.47731 1.09443 5.08554C0.992221 5.69299 0.93722 6.30745 0.929924 6.92341C0.921404 7.20487 0.920505 7.48727 0.916016 7.76877V28.9881C0.920505 29.2731 0.921404 29.5492 0.929924 29.8344C0.937223 30.4503 0.992223 31.0647 1.09443 31.6722C1.1954 32.2807 1.38889 32.8703 1.66819 33.4203C1.94633 33.9695 2.3116 34.47 2.74982 34.9023C3.18402 35.3402 3.68572 35.7055 4.23577 35.9844C4.78515 36.2637 5.3734 36.4589 5.98081 36.5635C6.5891 36.6634 7.20403 36.7176 7.82042 36.7258C8.10417 36.732 8.38299 36.7356 8.66404 36.7356C8.99977 36.7374 9.3324 36.7374 9.66902 36.7374H102.022C102.352 36.7374 102.687 36.7374 103.017 36.7356C103.296 36.7356 103.583 36.732 103.863 36.7258C104.478 36.7181 105.092 36.6638 105.699 36.5635C106.308 36.4582 106.899 36.263 107.451 35.9844C108 35.7054 108.502 35.3401 108.936 34.9023C109.373 34.4683 109.739 33.9682 110.02 33.4203C110.297 32.8699 110.489 32.2804 110.589 31.6722C110.691 31.0647 110.748 30.4504 110.759 29.8344C110.763 29.5492 110.763 29.2731 110.763 28.9881C110.77 28.6546 110.77 28.3229 110.77 27.9839V8.77105C110.77 8.43487 110.77 8.10137 110.763 7.76877C110.763 7.48727 110.763 7.20487 110.759 6.92337C110.748 6.30736 110.691 5.69304 110.589 5.0855C110.489 4.47763 110.297 3.88846 110.02 3.33822C109.454 2.23391 108.555 1.33502 107.451 0.767953C106.899 0.490021 106.308 0.296019 105.699 0.192356C105.092 0.0911747 104.478 0.0369244 103.863 0.0300872C103.583 0.0256073 103.296 0.0202277 103.017 0.0184376C102.687 0.0166016 102.352 0.0166016 102.022 0.0166016V0.0167209Z" fill="#A6A6A6"/>
<path d="M8.66884 35.9345C8.38913 35.9345 8.11619 35.9309 7.83868 35.9247C7.2638 35.9172 6.69027 35.8671 6.12278 35.7749C5.59362 35.6838 5.08102 35.5143 4.60186 35.2719C4.1271 35.0316 3.69408 34.7165 3.31939 34.3387C2.93928 33.9653 2.62282 33.5322 2.38255 33.0567C2.13963 32.578 1.97152 32.0649 1.88406 31.5353C1.78962 30.9663 1.73852 30.3909 1.73121 29.8141C1.72539 29.6204 1.71777 28.9758 1.71777 28.9758V7.7691C1.71777 7.7691 1.72589 7.13437 1.73126 6.94789C1.73826 6.37201 1.78906 5.79748 1.88322 5.2293C1.97083 4.69825 2.13908 4.1837 2.38212 3.70346C2.62151 3.22822 2.93622 2.79484 3.31404 2.42012C3.69144 2.04185 4.12584 1.72511 4.60141 1.48148C5.07947 1.23993 5.5911 1.0716 6.11919 0.982131C6.68854 0.889013 7.26407 0.838669 7.84094 0.831522L8.66929 0.820312H103.013L103.851 0.831971C104.422 0.838764 104.993 0.888659 105.557 0.981232C106.09 1.07183 106.607 1.24133 107.091 1.48417C108.044 1.97517 108.819 2.75197 109.308 3.70571C109.547 4.18262 109.713 4.69297 109.799 5.21944C109.894 5.79229 109.948 6.37132 109.959 6.95193C109.961 7.21192 109.961 7.49118 109.961 7.7691C109.969 8.11335 109.969 8.44102 109.969 8.77138V27.9843C109.969 28.3178 109.969 28.6432 109.961 28.9713C109.961 29.2699 109.961 29.5433 109.958 29.8248C109.947 30.395 109.895 30.9637 109.801 31.5263C109.715 32.0598 109.548 32.5768 109.305 33.0594C109.063 33.5298 108.749 33.9591 108.373 34.3315C107.998 34.7114 107.564 35.0283 107.088 35.2702C106.606 35.5144 106.09 35.6845 105.557 35.7749C104.989 35.8676 104.416 35.9177 103.841 35.9247C103.572 35.9309 103.29 35.9345 103.017 35.9345L102.022 35.9363L8.66884 35.9345Z" fill="black"/>
<path d="M23.654 18.6532C23.6639 17.8869 23.8674 17.1356 24.2457 16.4692C24.6239 15.8028 25.1646 15.2428 25.8174 14.8415C25.4027 14.2492 24.8556 13.7618 24.2196 13.418C23.5835 13.0741 22.8761 12.8833 22.1534 12.8607C20.6119 12.6989 19.1174 13.7832 18.3318 13.7832C17.5311 13.7832 16.3216 12.8768 15.0191 12.9036C14.1767 12.9308 13.3557 13.1758 12.6361 13.6146C11.9164 14.0535 11.3228 14.6713 10.9129 15.4078C9.13748 18.4817 10.4618 22.9993 12.1625 25.484C13.0134 26.7007 14.0079 28.0598 15.3092 28.0116C16.5825 27.9588 17.0581 27.1996 18.5951 27.1996C20.1179 27.1996 20.5641 28.0116 21.8917 27.981C23.2581 27.9588 24.1189 26.7589 24.94 25.5306C25.5514 24.6637 26.0218 23.7055 26.3339 22.6917C25.5401 22.3559 24.8627 21.7939 24.3861 21.0758C23.9096 20.3576 23.6549 19.5151 23.654 18.6532Z" fill="white"/>
<path d="M21.1469 11.2267C21.8919 10.3323 22.2589 9.1828 22.17 8.02222C21.0319 8.14176 19.9805 8.68574 19.2254 9.54577C18.8563 9.96591 18.5735 10.4547 18.3934 10.9842C18.2132 11.5137 18.1392 12.0735 18.1755 12.6316C18.7448 12.6374 19.308 12.514 19.8227 12.2707C20.3374 12.0273 20.7902 11.6704 21.1469 11.2267Z" fill="white"/>
<path d="M39.7499 24.9315H35.4046L34.361 28.0127H32.5205L36.6363 16.6128H38.5486L42.6644 28.0127H40.7925L39.7499 24.9315ZM35.8546 23.5096H39.299L37.601 18.5089H37.5535L35.8546 23.5096Z" fill="white"/>
<path d="M51.5533 23.8572C51.5533 26.4401 50.1709 28.0995 48.0847 28.0995C47.5563 28.1271 47.0307 28.0054 46.5682 27.7482C46.1057 27.491 45.725 27.1088 45.4696 26.6453H45.4302V30.7621H43.7241V19.701H45.3755V21.0835H45.4069C45.674 20.6222 46.0611 20.2419 46.5272 19.9832C46.9932 19.7245 47.5206 19.5969 48.0534 19.6141C50.1628 19.6141 51.5533 21.2816 51.5533 23.8572ZM49.7997 23.8572C49.7997 22.1745 48.9301 21.0682 47.6033 21.0682C46.2998 21.0682 45.423 22.1978 45.423 23.8572C45.423 25.5319 46.2998 26.6534 47.6033 26.6534C48.9301 26.6534 49.7997 25.5552 49.7997 23.8572Z" fill="white"/>
<path d="M60.7012 23.8572C60.7012 26.44 59.3188 28.0995 57.2327 28.0995C56.7042 28.1271 56.1787 28.0054 55.7162 27.7482C55.2537 27.491 54.873 27.1088 54.6176 26.6453H54.5781V30.7621H52.8721V19.701H54.5234V21.0834H54.5548C54.8219 20.6222 55.2091 20.2419 55.6751 19.9832C56.1411 19.7245 56.6685 19.5969 57.2013 19.6141C59.3108 19.6141 60.7012 21.2816 60.7012 23.8572ZM58.9477 23.8572C58.9477 22.1745 58.0781 21.0682 56.7513 21.0682C55.4477 21.0682 54.571 22.1978 54.571 23.8572C54.571 25.5319 55.4477 26.6534 56.7513 26.6534C58.0781 26.6534 58.9477 25.5552 58.9477 23.8572H58.9477Z" fill="white"/>
<path d="M66.7474 24.8366C66.8738 25.9671 67.972 26.7093 69.4728 26.7093C70.9107 26.7093 71.9453 25.967 71.9453 24.9477C71.9453 24.0628 71.3213 23.533 69.8439 23.1699L68.3665 22.814C66.2732 22.3084 65.3013 21.3294 65.3013 19.7408C65.3013 17.7739 67.0154 16.4229 69.4494 16.4229C71.8583 16.4229 73.5097 17.7739 73.5653 19.7408H71.8431C71.74 18.6031 70.7996 17.9164 69.4252 17.9164C68.0509 17.9164 67.1105 18.6112 67.1105 19.6225C67.1105 20.4284 67.7111 20.9027 69.1805 21.2657L70.4365 21.5741C72.7754 22.1273 73.7473 23.0668 73.7473 24.7343C73.7473 26.8671 72.0484 28.2028 69.3463 28.2028C66.8182 28.2028 65.1112 26.8984 65.001 24.8365L66.7474 24.8366Z" fill="white"/>
<path d="M77.4294 17.7344V19.7013H79.01V21.0523H77.4294V25.6343C77.4294 26.3462 77.7459 26.6779 78.4407 26.6779C78.6283 26.6746 78.8156 26.6614 79.0019 26.6384V27.9814C78.6895 28.0397 78.372 28.0662 78.0543 28.0603C76.3716 28.0603 75.7153 27.4282 75.7153 25.8163V21.0523H74.5068V19.7013H75.7153V17.7344H77.4294Z" fill="white"/>
<path d="M79.9253 23.8573C79.9253 21.2422 81.4655 19.5989 83.8672 19.5989C86.277 19.5989 87.81 21.2421 87.81 23.8573C87.81 26.4795 86.2851 28.1156 83.8672 28.1156C81.4502 28.1156 79.9253 26.4795 79.9253 23.8573ZM86.0717 23.8573C86.0717 22.0634 85.2496 21.0046 83.8672 21.0046C82.4848 21.0046 81.6636 22.0714 81.6636 23.8573C81.6636 25.6583 82.4848 26.709 83.8672 26.709C85.2496 26.709 86.0717 25.6583 86.0717 23.8573H86.0717Z" fill="white"/>
<path d="M89.2168 19.7015H90.844V21.1161H90.8834C90.9935 20.6743 91.2524 20.2838 91.6164 20.0104C91.9805 19.7369 92.4276 19.5971 92.8826 19.6145C93.0792 19.6138 93.2753 19.6351 93.4671 19.6781V21.2739C93.2189 21.1981 92.96 21.1632 92.7006 21.1708C92.4528 21.1608 92.2057 21.2045 91.9763 21.2989C91.747 21.3934 91.5407 21.5363 91.3719 21.718C91.203 21.8997 91.0754 22.1157 90.9979 22.3514C90.9204 22.587 90.8948 22.8366 90.9228 23.083V28.0129H89.2168L89.2168 19.7015Z" fill="white"/>
<path d="M101.332 25.5714C101.103 27.0802 99.6335 28.1156 97.7536 28.1156C95.3357 28.1156 93.835 26.4957 93.835 23.8967C93.835 21.2897 95.3438 19.5989 97.6818 19.5989C99.9814 19.5989 101.427 21.1785 101.427 23.6986V24.2831H95.5571V24.3862C95.5301 24.6921 95.5683 25.0002 95.6695 25.2902C95.7706 25.5801 95.9323 25.8452 96.1438 26.0679C96.3553 26.2906 96.6117 26.4657 96.896 26.5816C97.1804 26.6976 97.4861 26.7517 97.793 26.7404C98.1962 26.7782 98.6008 26.6848 98.9466 26.4742C99.2924 26.2635 99.561 25.9469 99.7124 25.5714L101.332 25.5714ZM95.5652 23.0907H99.7205C99.7358 22.8157 99.6941 22.5405 99.598 22.2823C99.5019 22.0242 99.3535 21.7887 99.1621 21.5906C98.9706 21.3925 98.7403 21.2361 98.4856 21.1313C98.2309 21.0264 97.9572 20.9754 97.6818 20.9813C97.404 20.9796 97.1286 21.033 96.8715 21.1383C96.6145 21.2437 96.3808 21.3989 96.184 21.595C95.9872 21.7911 95.8312 22.0243 95.725 22.281C95.6188 22.5377 95.5645 22.8129 95.5652 23.0908V23.0907Z" fill="white"/>
<path d="M35.6412 8.03136C35.9988 8.0057 36.3578 8.05973 36.692 8.18957C37.0263 8.31941 37.3276 8.52181 37.5741 8.78218C37.8207 9.04256 38.0064 9.3544 38.1178 9.69524C38.2293 10.0361 38.2637 10.3974 38.2186 10.7531C38.2186 12.5031 37.2728 13.509 35.6412 13.509H33.6626V8.03136H35.6412ZM34.5134 12.7344H35.5461C35.8017 12.7496 36.0575 12.7077 36.2948 12.6117C36.5322 12.5157 36.7451 12.3679 36.9182 12.1792C37.0912 11.9905 37.22 11.7656 37.2951 11.5208C37.3703 11.276 37.3899 11.0176 37.3526 10.7643C37.3872 10.512 37.3656 10.2552 37.2893 10.0122C37.213 9.76923 37.0839 9.54615 36.9112 9.35894C36.7386 9.17173 36.5267 9.02502 36.2907 8.92933C36.0547 8.83364 35.8004 8.79133 35.5461 8.80544H34.5134V12.7344Z" fill="white"/>
<path d="M39.1791 11.4405C39.1532 11.1688 39.1842 10.8947 39.2704 10.6358C39.3565 10.3769 39.4958 10.1388 39.6794 9.93682C39.8629 9.73488 40.0867 9.57352 40.3362 9.46311C40.5858 9.35269 40.8557 9.29565 41.1286 9.29565C41.4015 9.29565 41.6714 9.35269 41.9209 9.46311C42.1705 9.57352 42.3942 9.73488 42.5778 9.93682C42.7613 10.1388 42.9006 10.3769 42.9868 10.6358C43.0729 10.8947 43.104 11.1688 43.078 11.4405C43.1045 11.7124 43.0738 11.9869 42.9879 12.2463C42.902 12.5056 42.7627 12.7441 42.5791 12.9465C42.3955 13.1488 42.1716 13.3105 41.9218 13.4212C41.672 13.5318 41.4018 13.589 41.1286 13.589C40.8554 13.589 40.5852 13.5318 40.3353 13.4212C40.0855 13.3105 39.8616 13.1488 39.678 12.9465C39.4944 12.7441 39.3552 12.5056 39.2693 12.2463C39.1834 11.9869 39.1527 11.7124 39.1791 11.4405ZM42.2389 11.4405C42.2389 10.5444 41.8364 10.0204 41.1299 10.0204C40.4208 10.0204 40.0219 10.5444 40.0219 11.4405C40.0219 12.3437 40.4208 12.8637 41.1299 12.8637C41.8364 12.8637 42.2389 12.3401 42.2389 11.4405H42.2389Z" fill="white"/>
<path d="M48.2611 13.5093H47.4149L46.5605 10.4647H46.4959L45.6452 13.5093H44.8069L43.6675 9.37549H44.495L45.2355 12.5298H45.2964L46.1463 9.37549H46.929L47.7788 12.5298H47.8434L48.5803 9.37549H49.3961L48.2611 13.5093Z" fill="white"/>
<path d="M50.3545 9.37561H51.1398V10.0323H51.2008C51.3042 9.79644 51.4786 9.59872 51.6998 9.46671C51.9209 9.33469 52.1777 9.27495 52.4344 9.29582C52.6355 9.28069 52.8375 9.31102 53.0253 9.38455C53.2131 9.45808 53.382 9.57293 53.5194 9.72059C53.6568 9.86824 53.7593 10.0449 53.8191 10.2375C53.879 10.4302 53.8947 10.6338 53.8652 10.8333V13.5093H53.0494V11.0382C53.0494 10.3739 52.7607 10.0435 52.1574 10.0435C52.0208 10.0371 51.8845 10.0604 51.7577 10.1116C51.631 10.1629 51.5168 10.2409 51.4231 10.3404C51.3293 10.4399 51.2582 10.5585 51.2146 10.6881C51.1709 10.8177 51.1558 10.9551 51.1703 11.0911V13.5094H50.3545L50.3545 9.37561Z" fill="white"/>
<path d="M55.165 7.76172H55.9809V13.5092H55.165V7.76172Z" fill="white"/>
<path d="M57.1152 11.4406C57.0892 11.1689 57.1203 10.8948 57.2065 10.6358C57.2926 10.3769 57.432 10.1388 57.6155 9.93684C57.7991 9.73488 58.0228 9.57353 58.2724 9.46311C58.522 9.35269 58.7919 9.29565 59.0648 9.29565C59.3377 9.29565 59.6076 9.35269 59.8572 9.46311C60.1068 9.57353 60.3306 9.73488 60.5141 9.93684C60.6977 10.1388 60.837 10.3769 60.9232 10.6358C61.0094 10.8948 61.0405 11.1689 61.0145 11.4406C61.0409 11.7125 61.0102 11.987 60.9243 12.2464C60.8383 12.5057 60.6991 12.7442 60.5154 12.9466C60.3318 13.1489 60.1079 13.3106 59.8581 13.4212C59.6083 13.5319 59.3381 13.589 59.0648 13.589C58.7916 13.589 58.5214 13.5319 58.2716 13.4212C58.0217 13.3106 57.7978 13.1489 57.6142 12.9466C57.4306 12.7442 57.2913 12.5057 57.2054 12.2464C57.1194 11.987 57.0887 11.7125 57.1152 11.4406ZM60.1749 11.4406C60.1749 10.5445 59.7724 10.0205 59.0659 10.0205C58.3568 10.0205 57.9579 10.5445 57.9579 11.4406C57.9579 12.3438 58.3568 12.8638 59.0659 12.8638C59.7724 12.8638 60.1749 12.3402 60.1749 11.4406H60.1749Z" fill="white"/>
<path d="M61.873 12.3402C61.873 11.5961 62.4271 11.1671 63.4105 11.1061L64.5303 11.0416V10.6848C64.5303 10.2482 64.2416 10.0016 63.684 10.0016C63.2286 10.0016 62.913 10.1688 62.8224 10.4611H62.0326C62.116 9.75107 62.7839 9.29565 63.7216 9.29565C64.758 9.29565 65.3425 9.81158 65.3425 10.6848V13.5092H64.5572V12.9283H64.4926C64.3616 13.1367 64.1776 13.3065 63.9595 13.4206C63.7414 13.5346 63.4969 13.5887 63.251 13.5773C63.0774 13.5954 62.902 13.5769 62.7361 13.523C62.5702 13.4691 62.4173 13.381 62.2875 13.2645C62.1577 13.1479 62.0537 13.0054 61.9824 12.8462C61.911 12.687 61.8737 12.5146 61.873 12.3402ZM64.5303 11.9869V11.6413L63.5208 11.7059C62.9515 11.744 62.6933 11.9376 62.6933 12.3021C62.6933 12.6741 63.0161 12.8906 63.4599 12.8906C63.5899 12.9038 63.7213 12.8906 63.8461 12.852C63.971 12.8134 64.0868 12.75 64.1867 12.6657C64.2865 12.5814 64.3684 12.4778 64.4274 12.3612C64.4865 12.2446 64.5214 12.1173 64.5303 11.9869Z" fill="white"/>
<path d="M66.415 11.4405C66.415 10.1343 67.0865 9.30685 68.1309 9.30685C68.3893 9.29495 68.6457 9.35683 68.8702 9.48525C69.0946 9.61368 69.2779 9.80334 69.3986 10.0321H69.4596V7.76172H70.2754V13.5092H69.4936V12.8561H69.4291C69.2991 13.0833 69.1094 13.2706 68.8806 13.3977C68.6518 13.5248 68.3925 13.587 68.1309 13.5773C67.0794 13.5774 66.415 12.7499 66.415 11.4405ZM67.2578 11.4405C67.2578 12.3173 67.6711 12.8449 68.3623 12.8449C69.0499 12.8449 69.4748 12.3097 69.4748 11.4441C69.4748 10.5826 69.0454 10.0397 68.3623 10.0397C67.6755 10.0397 67.2578 10.5709 67.2578 11.4405H67.2578Z" fill="white"/>
<path d="M73.6508 11.4405C73.6248 11.1688 73.6559 10.8947 73.7421 10.6358C73.8282 10.3769 73.9675 10.1388 74.1511 9.93682C74.3346 9.73488 74.5583 9.57352 74.8079 9.46311C75.0575 9.35269 75.3274 9.29565 75.6003 9.29565C75.8732 9.29565 76.143 9.35269 76.3926 9.46311C76.6422 9.57352 76.8659 9.73488 77.0495 9.93682C77.233 10.1388 77.3723 10.3769 77.4585 10.6358C77.5446 10.8947 77.5757 11.1688 77.5497 11.4405C77.5762 11.7124 77.5455 11.9869 77.4596 12.2463C77.3736 12.5056 77.2344 12.7441 77.0508 12.9465C76.8672 13.1488 76.6433 13.3105 76.3935 13.4212C76.1437 13.5318 75.8735 13.589 75.6003 13.589C75.327 13.589 75.0568 13.5318 74.807 13.4212C74.5572 13.3105 74.3333 13.1488 74.1497 12.9465C73.9661 12.7441 73.8269 12.5056 73.741 12.2463C73.655 11.9869 73.6243 11.7124 73.6508 11.4405ZM76.7106 11.4405C76.7106 10.5444 76.308 10.0204 75.6016 10.0204C74.8925 10.0204 74.4936 10.5444 74.4936 11.4405C74.4936 12.3437 74.8925 12.8637 75.6016 12.8637C76.3081 12.8637 76.7106 12.3401 76.7106 11.4405Z" fill="white"/>
<path d="M78.644 9.37561H79.4294V10.0323H79.4903C79.5938 9.79644 79.7682 9.59872 79.9893 9.46671C80.2104 9.33469 80.4672 9.27495 80.7239 9.29582C80.9251 9.28069 81.127 9.31102 81.3149 9.38455C81.5027 9.45808 81.6716 9.57293 81.809 9.72059C81.9464 9.86824 82.0488 10.0449 82.1087 10.2375C82.1685 10.4302 82.1843 10.6338 82.1547 10.8333V13.5093H81.3389V11.0382C81.3389 10.3739 81.0503 10.0435 80.4469 10.0435C80.3104 10.0371 80.174 10.0604 80.0473 10.1116C79.9205 10.1629 79.8064 10.2409 79.7126 10.3404C79.6189 10.4399 79.5478 10.5585 79.5041 10.6881C79.4605 10.8177 79.4454 10.9551 79.4599 11.0911V13.5094H78.644V9.37561Z" fill="white"/>
<path d="M86.764 8.34619V9.3942H87.6596V10.0814H86.764V12.207C86.764 12.64 86.9424 12.8296 87.3485 12.8296C87.4525 12.8293 87.5563 12.823 87.6596 12.8108V13.4903C87.5131 13.5165 87.3646 13.5305 87.2158 13.532C86.3085 13.532 85.9473 13.2128 85.9473 12.4159V10.0813H85.291V9.39416H85.9473V8.34619H86.764Z" fill="white"/>
<path d="M88.7749 7.76172H89.5835V10.0397H89.6481C89.7565 9.80167 89.9358 9.60284 90.1613 9.47032C90.3869 9.33781 90.6478 9.27806 90.9085 9.29922C91.1086 9.28834 91.3086 9.32174 91.4943 9.39706C91.68 9.47237 91.8468 9.58774 91.9828 9.73494C92.1188 9.88213 92.2206 10.0575 92.281 10.2486C92.3414 10.4397 92.3589 10.6417 92.3322 10.8403V13.5092H91.5155V11.0416C91.5155 10.3813 91.208 10.0469 90.6316 10.0469C90.4914 10.0354 90.3503 10.0547 90.2183 10.1034C90.0864 10.1521 89.9666 10.229 89.8675 10.3289C89.7683 10.4287 89.6922 10.549 89.6444 10.6813C89.5966 10.8136 89.5783 10.9548 89.5908 11.0949V13.5092H88.7749L88.7749 7.76172Z" fill="white"/>
<path d="M97.089 12.3931C96.9782 12.7709 96.738 13.0977 96.4106 13.3164C96.0831 13.535 95.6892 13.6315 95.2978 13.5891C95.0254 13.5963 94.7548 13.5441 94.5046 13.4362C94.2545 13.3283 94.0308 13.1673 93.8491 12.9643C93.6674 12.7612 93.5321 12.5211 93.4525 12.2606C93.3729 12 93.351 11.7253 93.3882 11.4554C93.352 11.1847 93.3743 10.9093 93.4537 10.648C93.5331 10.3867 93.6677 10.1454 93.8484 9.94066C94.0292 9.73588 94.2518 9.57231 94.5012 9.46104C94.7506 9.34977 95.0211 9.29339 95.2942 9.29572C96.4444 9.29572 97.1383 10.0815 97.1383 11.3796V11.6643H94.2193V11.71C94.2065 11.8617 94.2256 12.0144 94.2753 12.1583C94.325 12.3022 94.4042 12.4341 94.5078 12.5456C94.6115 12.6571 94.7373 12.7457 94.8772 12.8058C95.0171 12.8658 95.168 12.8959 95.3202 12.8943C95.5153 12.9177 95.713 12.8825 95.8882 12.7933C96.0633 12.7041 96.2079 12.5648 96.3036 12.3931L97.089 12.3931ZM94.2193 11.0609H96.3072C96.3175 10.9222 96.2986 10.7828 96.2519 10.6518C96.2051 10.5208 96.1314 10.401 96.0356 10.3002C95.9398 10.1993 95.8239 10.1196 95.6954 10.0662C95.567 10.0128 95.4288 9.98688 95.2897 9.99007C95.1486 9.98829 95.0086 10.0148 94.8779 10.068C94.7472 10.1212 94.6284 10.2 94.5287 10.2998C94.4289 10.3996 94.3502 10.5184 94.297 10.6491C94.2439 10.7798 94.2175 10.9198 94.2193 11.0609H94.2193Z" fill="white"/>
</g>
<defs>
<clipPath id="clip0_337_1068">
<rect width="109.854" height="36.7207" fill="white" transform="translate(0.916016 0.0168457)"/>
</clipPath>
</defs>
</svg>
