<svg aria-hidden="true" style="position: absolute; width: 0; height: 0; overflow: hidden;" version="1.1" xmlns="http://www.w3.org/2000/svg" xmlns:xlink="http://www.w3.org/1999/xlink">
<defs>
<symbol id="icon-polygon" viewBox="0 0 37 32">
<path fill="#fff" style="fill: var(--color1, #fff)" d="M18.286 32l15.836-30.857h-31.672l15.836 30.857z"></path>
</symbol>
<symbol id="icon-app-store" viewBox="0 0 94 32">
<path d="M85.959 0.708h-78.517c-0.286 0-0.569 0-0.854 0.002-0.239 0.002-0.476 0.006-0.717 0.010-0.524 0.006-1.047 0.052-1.564 0.138-0.516 0.088-1.017 0.252-1.484 0.489-0.466 0.239-0.893 0.549-1.263 0.92-0.373 0.37-0.683 0.797-0.92 1.265s-0.402 0.968-0.488 1.486c-0.087 0.516-0.134 1.039-0.14 1.563-0.007 0.239-0.008 0.479-0.012 0.719v18.040c0.004 0.242 0.005 0.477 0.012 0.72 0.006 0.524 0.053 1.046 0.14 1.562 0.086 0.517 0.25 1.019 0.488 1.486 0.236 0.467 0.547 0.892 0.92 1.26 0.369 0.372 0.796 0.683 1.263 0.92s0.967 0.403 1.484 0.492c0.517 0.085 1.040 0.131 1.564 0.138 0.241 0.005 0.478 0.008 0.717 0.008 0.285 0.002 0.568 0.002 0.854 0.002h78.517c0.28 0 0.565 0 0.846-0.002 0.237 0 0.482-0.003 0.72-0.008 0.523-0.007 1.044-0.053 1.561-0.138 0.517-0.090 1.020-0.255 1.489-0.492 0.467-0.237 0.893-0.548 1.262-0.92 0.371-0.369 0.683-0.794 0.923-1.26 0.236-0.468 0.398-0.969 0.483-1.486 0.087-0.517 0.135-1.039 0.144-1.562 0.003-0.242 0.003-0.477 0.003-0.72 0.006-0.284 0.006-0.566 0.006-0.854v-16.335c0-0.286 0-0.569-0.006-0.852 0-0.239 0-0.479-0.003-0.719-0.009-0.524-0.058-1.046-0.144-1.563-0.085-0.517-0.248-1.018-0.483-1.486-0.482-0.939-1.246-1.703-2.185-2.185-0.469-0.236-0.972-0.401-1.489-0.489-0.516-0.086-1.038-0.132-1.561-0.138-0.238-0.004-0.482-0.008-0.72-0.010-0.281-0.002-0.566-0.002-0.846-0.002v0z"></path>
<path fill="#000" style="fill: var(--color2, #000)" d="M6.591 31.245c-0.238 0-0.47-0.003-0.706-0.008-0.489-0.006-0.976-0.049-1.459-0.127-0.45-0.078-0.886-0.222-1.293-0.428-0.404-0.204-0.772-0.472-1.090-0.793-0.323-0.317-0.592-0.686-0.796-1.090-0.207-0.407-0.349-0.843-0.424-1.293-0.080-0.484-0.124-0.973-0.13-1.463-0.005-0.165-0.011-0.713-0.011-0.713v-18.030c0 0 0.007-0.54 0.011-0.698 0.006-0.49 0.049-0.978 0.129-1.461 0.075-0.452 0.218-0.889 0.424-1.297 0.204-0.404 0.471-0.772 0.792-1.091 0.321-0.322 0.69-0.591 1.095-0.798 0.406-0.205 0.841-0.348 1.29-0.425 0.484-0.079 0.973-0.122 1.464-0.128l0.704-0.010 80.922 0.010c0.486 0.006 0.971 0.048 1.45 0.127 0.453 0.077 0.894 0.221 1.304 0.428 0.81 0.417 1.47 1.078 1.885 1.889 0.204 0.405 0.344 0.839 0.418 1.287 0.080 0.487 0.126 0.979 0.135 1.473 0.002 0.221 0.002 0.458 0.002 0.695 0.006 0.293 0.006 0.571 0.006 0.852v16.335c0 0.284 0 0.56-0.006 0.839 0 0.254 0 0.486-0.003 0.726-0.009 0.485-0.053 0.968-0.133 1.447-0.073 0.454-0.215 0.893-0.421 1.303-0.205 0.4-0.473 0.765-0.792 1.082-0.319 0.323-0.688 0.592-1.093 0.798-0.41 0.208-0.848 0.352-1.302 0.429-0.482 0.079-0.97 0.121-1.459 0.127-0.229 0.005-0.468 0.008-0.7 0.008l-0.846 0.002-79.368-0.002z"></path>
<path fill="#fff" style="fill: var(--color3, #fff)" d="M19.332 16.553c0.008-0.651 0.181-1.29 0.503-1.857s0.781-1.043 1.336-1.384c-0.353-0.504-0.818-0.918-1.359-1.21s-1.142-0.455-1.757-0.474c-1.311-0.138-2.581 0.784-3.249 0.784-0.681 0-1.709-0.771-2.816-0.748-0.716 0.023-1.414 0.231-2.026 0.605s-1.117 0.898-1.465 1.525c-1.51 2.613-0.384 6.454 1.062 8.567 0.723 1.034 1.569 2.19 2.675 2.149 1.083-0.045 1.487-0.69 2.794-0.69 1.295 0 1.674 0.69 2.803 0.664 1.162-0.019 1.894-1.039 2.592-2.083 0.52-0.737 0.92-1.552 1.185-2.414-0.675-0.285-1.251-0.763-1.656-1.374s-0.622-1.327-0.622-2.060z"></path>
<path fill="#fff" style="fill: var(--color3, #fff)" d="M17.2 10.239c0.633-0.76 0.945-1.738 0.87-2.724-0.968 0.102-1.861 0.564-2.503 1.295-0.314 0.357-0.554 0.773-0.707 1.223s-0.216 0.926-0.185 1.401c0.484 0.005 0.963-0.1 1.4-0.307s0.822-0.51 1.126-0.888z"></path>
<path fill="#fff" style="fill: var(--color3, #fff)" d="M33.017 21.891h-3.694l-0.887 2.62h-1.565l3.499-9.692h1.626l3.499 9.692h-1.591l-0.886-2.62zM29.705 20.682h2.928l-1.444-4.252h-0.040l-1.444 4.252z"></path>
<path fill="#fff" style="fill: var(--color3, #fff)" d="M43.052 20.977c0 2.196-1.175 3.607-2.949 3.607-0.449 0.023-0.896-0.080-1.289-0.299s-0.717-0.544-0.934-0.938h-0.034v3.5h-1.45v-9.404h1.404v1.175h0.027c0.227-0.392 0.556-0.715 0.952-0.935s0.845-0.328 1.298-0.314c1.793 0 2.976 1.418 2.976 3.607zM41.561 20.977c0-1.431-0.739-2.371-1.867-2.371-1.108 0-1.854 0.96-1.854 2.371 0 1.424 0.745 2.377 1.854 2.377 1.128 0 1.867-0.934 1.867-2.377z"></path>
<path fill="#fff" style="fill: var(--color3, #fff)" d="M50.829 20.977c0 2.196-1.175 3.607-2.949 3.607-0.449 0.023-0.896-0.080-1.289-0.299s-0.717-0.544-0.934-0.938h-0.034v3.5h-1.45v-9.404h1.404v1.175h0.027c0.227-0.392 0.556-0.715 0.953-0.935s0.845-0.328 1.298-0.314c1.793 0 2.976 1.418 2.976 3.607zM49.338 20.977c0-1.431-0.739-2.371-1.867-2.371-1.108 0-1.854 0.96-1.854 2.371 0 1.424 0.745 2.377 1.854 2.377 1.128 0 1.867-0.934 1.867-2.377v0z"></path>
<path fill="#fff" style="fill: var(--color3, #fff)" d="M55.969 21.81c0.107 0.961 1.041 1.592 2.317 1.592 1.223 0 2.102-0.631 2.102-1.498 0-0.752-0.531-1.203-1.787-1.511l-1.256-0.303c-1.78-0.43-2.606-1.262-2.606-2.613 0-1.672 1.457-2.821 3.527-2.821 2.048 0 3.452 1.149 3.499 2.821h-1.464c-0.088-0.967-0.887-1.551-2.056-1.551s-1.968 0.591-1.968 1.45c0 0.685 0.511 1.088 1.76 1.397l1.068 0.262c1.989 0.47 2.815 1.269 2.815 2.687 0 1.813-1.444 2.949-3.742 2.949-2.149 0-3.601-1.109-3.694-2.862l1.485 0z"></path>
<path fill="#fff" style="fill: var(--color3, #fff)" d="M65.051 15.772v1.672h1.344v1.149h-1.344v3.896c0 0.605 0.269 0.887 0.86 0.887 0.16-0.003 0.319-0.014 0.477-0.034v1.142c-0.266 0.050-0.535 0.072-0.806 0.067-1.431 0-1.989-0.537-1.989-1.908v-4.050h-1.027v-1.149h1.027v-1.672h1.457z"></path>
<path fill="#fff" style="fill: var(--color3, #fff)" d="M67.173 20.977c0-2.223 1.309-3.62 3.351-3.62 2.049 0 3.352 1.397 3.352 3.62 0 2.229-1.297 3.62-3.352 3.62s-3.351-1.391-3.351-3.62zM72.398 20.977c0-1.525-0.699-2.425-1.874-2.425s-1.873 0.907-1.873 2.425c0 1.531 0.698 2.425 1.873 2.425s1.874-0.893 1.874-2.425v0z"></path>
<path fill="#fff" style="fill: var(--color3, #fff)" d="M75.072 17.444h1.383v1.203h0.034c0.094-0.376 0.314-0.708 0.623-0.94s0.69-0.351 1.076-0.337c0.168-0.001 0.334 0.018 0.497 0.054v1.357c-0.211-0.064-0.431-0.094-0.652-0.088-0.211-0.009-0.421 0.029-0.616 0.109s-0.37 0.202-0.514 0.356c-0.144 0.154-0.252 0.338-0.318 0.539s-0.088 0.413-0.064 0.622v4.191h-1.45v-7.066z"></path>
<path fill="#fff" style="fill: var(--color3, #fff)" d="M85.374 22.435c-0.195 1.283-1.445 2.163-3.043 2.163-2.056 0-3.331-1.377-3.331-3.587 0-2.216 1.282-3.654 3.27-3.654 1.955 0 3.184 1.343 3.184 3.485v0.497h-4.99v0.088c-0.023 0.26 0.009 0.522 0.095 0.769s0.223 0.472 0.403 0.661c0.18 0.189 0.397 0.338 0.639 0.437s0.502 0.145 0.763 0.135c0.343 0.032 0.687-0.047 0.981-0.226s0.522-0.448 0.651-0.768h1.378zM80.47 20.326h3.533c0.013-0.234-0.023-0.468-0.105-0.687s-0.208-0.42-0.371-0.588c-0.162-0.168-0.358-0.301-0.574-0.39s-0.45-0.133-0.684-0.128c-0.237-0.001-0.471 0.044-0.689 0.134s-0.417 0.221-0.585 0.388c-0.167 0.167-0.3 0.365-0.39 0.583s-0.136 0.452-0.136 0.688v0z"></path>
<path fill="#fff" style="fill: var(--color3, #fff)" d="M29.523 7.523c0.304-0.022 0.609 0.024 0.893 0.135s0.54 0.282 0.75 0.504c0.21 0.221 0.368 0.487 0.462 0.776s0.124 0.597 0.086 0.899c0 1.488-0.804 2.343-2.191 2.343h-1.682v-4.657h1.682zM28.564 11.521h0.878c0.217 0.013 0.435-0.023 0.637-0.104s0.383-0.207 0.53-0.368 0.257-0.352 0.32-0.56c0.064-0.208 0.081-0.428 0.049-0.643 0.029-0.215 0.011-0.433-0.054-0.639s-0.175-0.396-0.321-0.555c-0.147-0.159-0.327-0.284-0.528-0.365s-0.417-0.117-0.633-0.105h-0.878v3.34z"></path>
<path fill="#fff" style="fill: var(--color3, #fff)" d="M32.531 10.421c-0.022-0.231 0.004-0.464 0.078-0.684s0.192-0.423 0.348-0.594c0.156-0.172 0.346-0.309 0.558-0.403s0.442-0.142 0.674-0.142c0.232 0 0.462 0.048 0.674 0.142s0.402 0.231 0.558 0.403c0.156 0.172 0.275 0.374 0.348 0.594s0.1 0.453 0.078 0.684c0.022 0.231-0.004 0.465-0.077 0.685s-0.191 0.423-0.348 0.595c-0.156 0.172-0.346 0.31-0.559 0.404s-0.442 0.143-0.674 0.143c-0.232 0-0.462-0.049-0.674-0.143s-0.403-0.232-0.559-0.404c-0.156-0.172-0.274-0.375-0.347-0.595s-0.099-0.454-0.077-0.685zM35.133 10.421c0-0.762-0.342-1.207-0.943-1.207-0.603 0-0.942 0.446-0.942 1.207 0 0.768 0.339 1.21 0.942 1.21 0.601-0 0.943-0.445 0.943-1.21v0z"></path>
<path fill="#fff" style="fill: var(--color3, #fff)" d="M40.252 12.18h-0.719l-0.726-2.588h-0.055l-0.723 2.588h-0.713l-0.969-3.514h0.704l0.63 2.682h0.052l0.722-2.682h0.665l0.723 2.682h0.055l0.627-2.682h0.694l-0.965 3.514z"></path>
<path fill="#fff" style="fill: var(--color3, #fff)" d="M42.032 8.665h0.668v0.558h0.052c0.088-0.201 0.236-0.369 0.424-0.481s0.406-0.163 0.625-0.145c0.171-0.013 0.343 0.013 0.502 0.075s0.303 0.16 0.42 0.286c0.117 0.126 0.204 0.276 0.255 0.44s0.064 0.337 0.039 0.507v2.275h-0.694v-2.101c0-0.565-0.245-0.846-0.758-0.846-0.116-0.005-0.232 0.014-0.34 0.058s-0.205 0.11-0.285 0.194c-0.080 0.085-0.14 0.185-0.177 0.296s-0.050 0.227-0.038 0.343v2.056h-0.694v-3.515z"></path>
<path fill="#fff" style="fill: var(--color3, #fff)" d="M46.122 7.293h0.694v4.886h-0.694v-4.886z"></path>
<path fill="#fff" style="fill: var(--color3, #fff)" d="M47.78 10.421c-0.022-0.231 0.004-0.464 0.078-0.684s0.192-0.423 0.348-0.594c0.156-0.172 0.346-0.309 0.559-0.403s0.442-0.142 0.674-0.142c0.232 0 0.462 0.048 0.674 0.142s0.402 0.231 0.559 0.403 0.275 0.374 0.348 0.594c0.073 0.22 0.1 0.453 0.078 0.684 0.023 0.231-0.004 0.465-0.077 0.685s-0.192 0.423-0.348 0.595-0.346 0.31-0.559 0.404c-0.212 0.094-0.442 0.143-0.674 0.143s-0.462-0.049-0.674-0.143c-0.212-0.094-0.403-0.232-0.559-0.404s-0.275-0.375-0.348-0.595c-0.073-0.22-0.099-0.454-0.077-0.685zM50.381 10.421c0-0.762-0.342-1.207-0.943-1.207-0.603 0-0.942 0.445-0.942 1.207 0 0.768 0.339 1.21 0.942 1.21 0.601 0 0.943-0.445 0.943-1.21v0z"></path>
<path fill="#fff" style="fill: var(--color3, #fff)" d="M51.825 11.186c0-0.633 0.471-0.997 1.307-1.049l0.952-0.055v-0.303c0-0.371-0.245-0.581-0.72-0.581-0.387 0-0.655 0.142-0.732 0.391h-0.672c0.071-0.604 0.639-0.991 1.436-0.991 0.881 0 1.378 0.439 1.378 1.181v2.401h-0.668v-0.494h-0.055c-0.111 0.177-0.268 0.322-0.453 0.419s-0.393 0.143-0.602 0.133c-0.148 0.015-0.297-0-0.438-0.046s-0.271-0.121-0.381-0.22c-0.11-0.099-0.199-0.22-0.259-0.356s-0.092-0.282-0.093-0.43zM54.084 10.885v-0.294l-0.858 0.055c-0.484 0.032-0.704 0.197-0.704 0.507 0 0.316 0.274 0.5 0.652 0.5 0.111 0.011 0.222 0 0.328-0.033s0.205-0.087 0.289-0.158c0.085-0.072 0.155-0.16 0.205-0.259s0.080-0.207 0.087-0.318z"></path>
<path fill="#fff" style="fill: var(--color3, #fff)" d="M55.686 10.421c0-1.11 0.571-1.814 1.459-1.814 0.22-0.010 0.438 0.042 0.628 0.152s0.347 0.27 0.449 0.465h0.052v-1.93h0.694v4.886h-0.665v-0.555h-0.055c-0.111 0.193-0.272 0.352-0.466 0.46s-0.415 0.161-0.637 0.153c-0.894 0-1.459-0.703-1.459-1.817zM56.403 10.421c0 0.745 0.351 1.194 0.939 1.194 0.585 0 0.946-0.455 0.946-1.191 0-0.732-0.365-1.194-0.946-1.194-0.584 0-0.939 0.452-0.939 1.191v0z"></path>
<path fill="#fff" style="fill: var(--color3, #fff)" d="M61.838 10.421c-0.022-0.231 0.004-0.464 0.078-0.684s0.192-0.423 0.348-0.594c0.156-0.172 0.346-0.309 0.558-0.403s0.442-0.142 0.674-0.142c0.232 0 0.461 0.048 0.674 0.142s0.402 0.231 0.558 0.403c0.156 0.172 0.275 0.374 0.348 0.594s0.1 0.453 0.078 0.684c0.022 0.231-0.004 0.465-0.077 0.685s-0.191 0.423-0.348 0.595c-0.156 0.172-0.346 0.31-0.559 0.404s-0.442 0.143-0.674 0.143c-0.232 0-0.462-0.049-0.674-0.143s-0.403-0.232-0.559-0.404c-0.156-0.172-0.275-0.375-0.348-0.595s-0.099-0.454-0.077-0.685zM64.439 10.421c0-0.762-0.342-1.207-0.943-1.207-0.603 0-0.942 0.446-0.942 1.207 0 0.768 0.339 1.21 0.942 1.21 0.601-0 0.943-0.445 0.943-1.21z"></path>
<path fill="#fff" style="fill: var(--color3, #fff)" d="M66.083 8.665h0.668v0.558h0.052c0.088-0.201 0.236-0.369 0.424-0.481s0.406-0.163 0.625-0.145c0.171-0.013 0.343 0.013 0.502 0.075s0.303 0.16 0.42 0.286c0.117 0.126 0.204 0.276 0.255 0.44s0.064 0.337 0.039 0.507v2.275h-0.694v-2.101c0-0.565-0.245-0.846-0.758-0.846-0.116-0.005-0.232 0.014-0.34 0.058s-0.205 0.11-0.284 0.194c-0.080 0.085-0.14 0.185-0.177 0.296s-0.050 0.227-0.038 0.343v2.056h-0.694v-3.515z"></path>
<path fill="#fff" style="fill: var(--color3, #fff)" d="M72.987 7.79v0.891h0.761v0.584h-0.761v1.807c0 0.368 0.152 0.529 0.497 0.529 0.088-0 0.177-0.006 0.264-0.016v0.578c-0.125 0.022-0.251 0.034-0.377 0.035-0.771 0-1.078-0.271-1.078-0.949v-1.985h-0.558v-0.584h0.558v-0.891h0.694z"></path>
<path fill="#fff" style="fill: var(--color3, #fff)" d="M74.696 7.293h0.687v1.937h0.055c0.092-0.202 0.245-0.371 0.436-0.484s0.414-0.164 0.635-0.145c0.17-0.009 0.34 0.019 0.498 0.083s0.3 0.162 0.415 0.287c0.116 0.125 0.202 0.274 0.254 0.437s0.066 0.334 0.043 0.503v2.269h-0.694v-2.098c0-0.561-0.261-0.846-0.752-0.846-0.119-0.010-0.239 0.007-0.351 0.048s-0.214 0.107-0.298 0.192c-0.084 0.085-0.149 0.187-0.19 0.3s-0.056 0.232-0.046 0.352v2.053h-0.694v-4.886z"></path>
<path fill="#fff" style="fill: var(--color3, #fff)" d="M81.765 11.231c-0.094 0.321-0.298 0.599-0.577 0.785s-0.613 0.268-0.946 0.232c-0.232 0.006-0.462-0.038-0.674-0.13s-0.403-0.229-0.557-0.401-0.269-0.377-0.337-0.598c-0.068-0.222-0.087-0.455-0.055-0.685-0.031-0.23-0.012-0.464 0.055-0.686s0.182-0.427 0.336-0.601 0.343-0.313 0.555-0.408c0.212-0.095 0.443-0.143 0.674-0.14 0.978 0 1.568 0.668 1.568 1.772v0.242h-2.482v0.039c-0.011 0.129 0.005 0.259 0.048 0.381s0.11 0.234 0.197 0.329c0.088 0.095 0.195 0.17 0.315 0.221s0.247 0.077 0.376 0.075c0.166 0.020 0.334-0.010 0.483-0.086s0.272-0.194 0.354-0.34l0.667 0zM79.325 10.098h1.776c0.009-0.118-0.008-0.236-0.048-0.348s-0.102-0.213-0.183-0.299c-0.082-0.086-0.18-0.154-0.29-0.199s-0.226-0.068-0.345-0.065c-0.12-0.001-0.239 0.021-0.35 0.066s-0.212 0.112-0.297 0.197c-0.084 0.085-0.151 0.186-0.197 0.297s-0.068 0.23-0.066 0.35v0z"></path>
</symbol>
<symbol id="icon-facebook" viewBox="0 0 17 32">
<path d="M10.648 32h-7.006v-14.924h-3.501v-5.751h3.501v-3.45c0-4.688 1.977-7.48 7.593-7.48h4.675v5.751h-2.921c-2.187 0-2.332 0.803-2.332 2.303l-0.009 2.876h5.296l-0.62 5.751h-4.675v14.924z"></path>
</symbol>
<symbol id="icon-instagram" viewBox="0 0 32 32">
<path  d="M31.968 9.408c-0.074-1.701-0.349-2.869-0.742-3.882-0.424-1.111-1.054-2.059-1.85-2.837l-0.001-0.001c-0.78-0.792-1.724-1.419-2.778-1.827l-0.054-0.018c-1.019-0.394-2.181-0.667-3.882-0.742-1.712-0.082-2.256-0.101-6.602-0.101-4.344 0-4.888 0.019-6.595 0.094-1.699 0.074-2.869 0.349-3.88 0.742-1.112 0.424-2.060 1.054-2.839 1.85l-0.001 0.001c-0.791 0.78-1.418 1.724-1.825 2.778l-0.018 0.054c-0.395 1.019-0.669 2.181-0.744 3.882-0.082 1.712-0.101 2.256-0.101 6.602 0 4.344 0.019 4.888 0.094 6.595 0.075 1.701 0.35 2.869 0.744 3.882 0.426 1.11 1.055 2.057 1.849 2.837l0.001 0.001c0.8 0.813 1.77 1.443 2.832 1.843 1.019 0.395 2.182 0.67 3.882 0.744 1.707 0.075 2.251 0.094 6.595 0.094 4.346 0 4.89-0.019 6.595-0.094 1.701-0.074 2.869-0.349 3.882-0.742 2.157-0.85 3.833-2.526 4.664-4.628l0.019-0.055c0.394-1.019 0.669-2.182 0.744-3.882 0.075-1.707 0.093-2.251 0.093-6.595s-0.006-4.888-0.080-6.595zM29.088 22.474c-0.070 1.563-0.333 2.406-0.55 2.97-0.552 1.399-1.64 2.486-3.004 3.024l-0.036 0.012c-0.56 0.219-1.411 0.482-2.968 0.55-1.688 0.075-2.194 0.094-6.464 0.094-4.269 0-4.782-0.019-6.464-0.094-1.563-0.069-2.406-0.331-2.97-0.55-0.721-0.269-1.334-0.676-1.836-1.192l-0.001-0.001c-0.517-0.503-0.924-1.117-1.184-1.803l-0.011-0.034c-0.218-0.563-0.48-1.413-0.549-2.97-0.075-1.688-0.094-2.195-0.094-6.464 0-4.27 0.019-4.784 0.094-6.464 0.069-1.563 0.331-2.406 0.549-2.97 0.269-0.722 0.678-1.337 1.198-1.837l0.002-0.002c0.504-0.517 1.119-0.923 1.806-1.182l0.034-0.011c0.56-0.219 1.411-0.48 2.968-0.55 1.688-0.074 2.195-0.093 6.464-0.093 4.275 0 4.782 0.019 6.464 0.093 1.563 0.069 2.406 0.331 2.97 0.55 0.693 0.256 1.325 0.662 1.837 1.194 0.531 0.52 0.938 1.144 1.195 1.84 0.218 0.56 0.48 1.411 0.549 2.968 0.075 1.688 0.094 2.194 0.094 6.464 0 4.269-0.019 4.768-0.094 6.458z"></path>
<path  d="M16.059 7.782c-4.539 0.002-8.218 3.682-8.219 8.221v0c0.091 4.471 3.737 8.060 8.221 8.060s8.13-3.589 8.221-8.052l0-0.009c-0.001-4.54-3.681-8.22-8.221-8.221h-0zM16.059 21.334c-2.945-0-5.332-2.388-5.332-5.333s2.388-5.333 5.333-5.333c0 0 0.001 0 0.001 0h-0c2.946 0 5.334 2.388 5.334 5.334s-2.388 5.334-5.334 5.334v0zM26.525 7.458c0 1.060-0.86 1.92-1.92 1.92s-1.92-0.86-1.92-1.92v0c0-1.060 0.86-1.92 1.92-1.92s1.92 0.86 1.92 1.92v0z"></path>
</symbol>
<symbol id="icon-google-play" viewBox="0 0 82 32">
<path d="M0 0.492h82.441v31.458h-82.441v-31.458z"></path>
</symbol>
<symbol id="icon-linkedin" viewBox="0 0 30 32">
<path d="M6.758 11.094v19.395h-6.022v-19.395h6.022zM7.252 4.95c0 1.928-1.567 3.498-3.493 3.498-1.937 0-3.493-1.57-3.493-3.498s1.556-3.498 3.493-3.498c1.925 0 3.493 1.57 3.493 3.498zM16.307 11.094v2.657h0.078c0.806-1.525 2.765-3.128 5.698-3.128 6.090 0 7.22 4.014 7.22 9.238v10.628h-6.011v-9.429c0-2.253-0.034-5.146-3.123-5.146-3.134 0-3.604 2.455-3.604 4.978v9.597h-6.011v-19.395h5.754z"></path>
</symbol>
<symbol id="icon-time-management-1" viewBox="0 0 32 32">
<path fill="#ffc65d" style="fill: var(--color4, #ffc65d)" d="M13.333 4.267h5.333c4.418 0 8 3.582 8 8v5.333c0 4.418-3.582 8-8 8h-5.333c-4.418 0-8-3.582-8-8v-5.333c0-4.418 3.582-8 8-8z"></path>
<path fill="#fff" style="fill: var(--color3, #fff)" d="M13.125 7.872c-0.253 0.075-0.433 0.178-0.606 0.35-0.178 0.178-0.281 0.344-0.356 0.583-0.064 0.208-0.075 0.969-0.014 1.194 0.053 0.197 0.169 0.417 0.297 0.556 0.083 0.092 0.108 0.139 0.108 0.217v0.097l-0.844 0.283c-0.494 0.164-0.881 0.308-0.936 0.35-0.128 0.094-0.242 0.269-0.261 0.408-0.025 0.178-0.003 4.025 0.025 4.094l0.022 0.064h-0.619c-0.342 0-0.667 0.014-0.725 0.028-0.125 0.036-0.292 0.214-0.314 0.339-0.008 0.050-0.014 0.544-0.008 1.097 0.008 0.969 0.011 1.008 0.067 1.083 0.031 0.042 0.1 0.106 0.15 0.139 0.092 0.064 0.092 0.064 1.308 0.064h1.219v2.75h-1.833v0.472h12.389v-0.472h-0.644l-0.647-0.003 0.108-0.061c0.058-0.033 0.214-0.136 0.344-0.228 1.614-1.133 2.197-3.256 1.386-5.056-0.386-0.858-1.078-1.578-1.922-1.997-0.167-0.083-0.378-0.172-0.464-0.2-0.089-0.028-0.161-0.058-0.161-0.069 0-0.008 0.033-0.078 0.075-0.153 0.064-0.114 0.078-0.169 0.078-0.331-0.003-0.239-0.072-0.406-0.233-0.564-0.106-0.103-0.317-0.192-2.311-0.989l-2.194-0.878-0.608-0.103c-0.6-0.097-0.611-0.103-0.611-0.167 0-0.039 0.056-0.133 0.131-0.225 0.269-0.331 0.358-0.664 0.333-1.256-0.019-0.508-0.125-0.775-0.417-1.064-0.356-0.353-0.858-0.489-1.311-0.356zM13.867 8.37c0.181 0.089 0.347 0.261 0.433 0.444 0.069 0.144 0.075 0.192 0.083 0.575 0.008 0.378 0.003 0.436-0.053 0.583-0.164 0.439-0.661 0.689-1.108 0.558-0.306-0.089-0.569-0.375-0.636-0.689-0.067-0.3-0.028-0.867 0.072-1.061 0.1-0.192 0.342-0.392 0.564-0.464 0.139-0.044 0.506-0.014 0.644 0.053zM13.319 11.011c0.156 0.022 0.372 0.006 0.55-0.039 0.075-0.019 0.075-0.019 0.075 0.117v0.136l1.539 0.261 2.125 0.847c2.344 0.936 2.281 0.903 2.281 1.136 0 0.1-0.017 0.139-0.083 0.206-0.092 0.094-0.225 0.128-0.347 0.092-0.047-0.014-0.886-0.325-1.869-0.694l-1.783-0.669h-0.944v9.167h-1.167v-6.167h-0.444v6.167h-1.139v-2.75h0.067c0.081 0 0.228-0.097 0.306-0.203 0.056-0.075 0.058-0.114 0.067-1.097 0.006-0.675 0-1.053-0.022-1.122-0.039-0.136-0.169-0.264-0.308-0.3l-0.108-0.031v-3.664h-0.472v1.711c0 1.533-0.006 1.719-0.044 1.789-0.139 0.233-0.486 0.214-0.606-0.036-0.042-0.092-0.044-0.264-0.039-2.003 0.008-1.869 0.008-1.906 0.064-1.961 0.036-0.033 0.433-0.181 1.028-0.381l0.972-0.328 0.008-0.122c0.008-0.108 0.014-0.117 0.069-0.1 0.033 0.008 0.136 0.028 0.228 0.039zM17.022 13.353c1.172 0.439 1.278 0.483 1.194 0.503-0.369 0.097-0.625 0.175-0.825 0.256-0.764 0.311-1.458 0.911-1.939 1.678l-0.147 0.233v-3.147h0.217c0.211-0.003 0.236 0.006 1.5 0.478zM19.314 14.264c1.431 0.139 2.597 1.039 3.114 2.403 0.156 0.403 0.194 0.658 0.197 1.222 0 0.408-0.011 0.581-0.050 0.764-0.311 1.439-1.414 2.542-2.853 2.853-0.183 0.039-0.356 0.050-0.764 0.050-0.458-0.003-0.561-0.011-0.792-0.067-0.667-0.167-1.239-0.475-1.706-0.919-1.5-1.431-1.528-3.794-0.061-5.25 0.681-0.678 1.556-1.047 2.544-1.078 0.053-0.003 0.219 0.008 0.369 0.022zM11.486 16.823c-0.536 0.358-0.592 0.386-0.764 0.386s-0.228-0.028-0.764-0.386l-0.417-0.281h2.361l-0.417 0.281zM9.803 17.273c0.533 0.356 0.625 0.394 0.933 0.394 0.3-0.003 0.35-0.022 0.914-0.4 0.208-0.142 0.397-0.264 0.419-0.272 0.036-0.011 0.042 0.086 0.042 0.683v0.697h-2.75v-0.697c0-0.547 0.008-0.692 0.036-0.675 0.017 0.011 0.2 0.133 0.406 0.269zM15.417 19.978c0.303 0.542 0.822 1.075 1.403 1.439l0.244 0.153h-1.758v-0.875c0-0.481 0.006-0.875 0.011-0.875s0.053 0.072 0.1 0.158z"></path>
<path fill="#fff" style="fill: var(--color3, #fff)" d="M18.57 14.728c-0.531 0.067-1.156 0.333-1.572 0.667l-0.103 0.081 0.072 0.081c0.039 0.047 0.106 0.125 0.147 0.172l0.078 0.092 0.203-0.147c0.114-0.078 0.306-0.192 0.428-0.25 0.228-0.106 0.703-0.242 0.847-0.242h0.081v0.667h0.472v-0.672l0.156 0.019c0.928 0.114 1.806 0.814 2.164 1.722 0.067 0.167 0.178 0.625 0.181 0.728 0 0.028-0.086 0.036-0.333 0.036h-0.333v0.472h0.669l-0.019 0.131c-0.067 0.467-0.275 0.969-0.536 1.297-0.047 0.058-0.086 0.117-0.086 0.125 0.003 0.025 0.306 0.267 0.333 0.267 0.047 0 0.272-0.325 0.403-0.572 0.65-1.256 0.428-2.744-0.567-3.744-0.478-0.481-1.067-0.786-1.736-0.906-0.222-0.039-0.731-0.050-0.947-0.022z"></path>
<path fill="#fff" style="fill: var(--color3, #fff)" d="M16.481 15.903c-0.281 0.344-0.519 0.847-0.636 1.325-0.061 0.261-0.083 0.836-0.042 1.119 0.106 0.708 0.419 1.339 0.922 1.836 1 0.994 2.489 1.217 3.744 0.567 0.247-0.131 0.572-0.356 0.572-0.403 0-0.028-0.242-0.331-0.267-0.333-0.008 0-0.067 0.039-0.125 0.086-0.328 0.261-0.831 0.469-1.294 0.536l-0.133 0.019v-0.669h-0.472v0.333c0 0.247-0.008 0.333-0.033 0.333-0.106-0.003-0.564-0.114-0.731-0.181-0.639-0.253-1.214-0.794-1.5-1.411-0.108-0.233-0.194-0.528-0.222-0.753l-0.019-0.156h0.672v-0.472h-0.667v-0.081c0-0.144 0.136-0.619 0.242-0.847 0.058-0.122 0.172-0.314 0.25-0.428l0.147-0.203-0.092-0.078c-0.047-0.044-0.125-0.111-0.172-0.147l-0.083-0.069-0.061 0.075z"></path>
<path fill="#fff" style="fill: var(--color3, #fff)" d="M18.75 17.236v0.917h1.139v-0.472h-0.667v-1.361h-0.472v0.917z"></path>
<path fill="#fff" style="fill: var(--color3, #fff)" d="M8.889 21.806v0.236h0.475l-0.008-0.231-0.008-0.228-0.458-0.017v0.239z"></path>
<path fill="#fff" style="fill: var(--color3, #fff)" d="M22.658 21.589c-0.011 0.008-0.019 0.117-0.019 0.236v0.217h0.472v-0.472h-0.217c-0.119 0-0.228 0.008-0.236 0.019z"></path>
</symbol>
<symbol id="icon-time-management2" viewBox="0 0 32 32">
<path fill="#9033f9" style="fill: var(--color5, #9033f9)" d="M13.333 4.267h5.333c4.418 0 8 3.582 8 8v5.333c0 4.418-3.582 8-8 8h-5.333c-4.418 0-8-3.582-8-8v-5.333c0-4.418 3.582-8 8-8z"></path>
<path fill="#fff" style="fill: var(--color3, #fff)" d="M15.225 8.247c-0.067 0.064-0.069 0.078-0.069 0.497v0.428l-0.186 0.061c-0.106 0.033-0.311 0.119-0.461 0.189l-0.272 0.125-0.3-0.294c-0.431-0.425-0.375-0.439-1.036 0.225-0.664 0.661-0.65 0.606-0.225 1.036l0.294 0.3-0.125 0.272c-0.069 0.15-0.156 0.356-0.189 0.458l-0.061 0.189h-0.428c-0.419 0-0.433 0.003-0.497 0.069l-0.069 0.067v1.506l0.069 0.067c0.064 0.067 0.078 0.069 0.497 0.069h0.428l0.061 0.186c0.033 0.106 0.119 0.311 0.189 0.461l0.125 0.272-0.294 0.3c-0.425 0.431-0.439 0.375 0.225 1.036 0.661 0.664 0.606 0.65 1.036 0.225l0.3-0.294 0.272 0.125c0.15 0.069 0.356 0.156 0.461 0.189l0.186 0.061v0.428c0 0.419 0.003 0.433 0.069 0.497l0.067 0.069h1.506l0.067-0.069c0.067-0.064 0.069-0.078 0.069-0.497v-0.428l0.189-0.061c0.103-0.033 0.308-0.119 0.458-0.189l0.272-0.125 0.3 0.294c0.431 0.425 0.375 0.439 1.036-0.225 0.664-0.661 0.65-0.606 0.225-1.036l-0.294-0.3 0.125-0.272c0.069-0.15 0.156-0.356 0.189-0.461l0.061-0.186h0.428c0.419 0 0.433-0.003 0.497-0.069l0.069-0.067v-1.506l-0.069-0.067c-0.064-0.067-0.078-0.069-0.497-0.069h-0.428l-0.061-0.189c-0.033-0.103-0.119-0.308-0.189-0.458l-0.125-0.272 0.294-0.3c0.425-0.431 0.439-0.375-0.225-1.036-0.661-0.664-0.606-0.65-1.036-0.225l-0.3 0.294-0.272-0.125c-0.15-0.069-0.356-0.156-0.458-0.189l-0.189-0.061v-0.428c0-0.419-0.003-0.433-0.069-0.497l-0.067-0.069h-1.506l-0.067 0.069zM16.489 9.022c0 0.5 0.006 0.506 0.375 0.603 0.158 0.039 0.392 0.133 0.631 0.256 0.269 0.136 0.4 0.189 0.444 0.175 0.036-0.008 0.189-0.139 0.342-0.294l0.278-0.278 0.311 0.311 0.314 0.311-0.292 0.297c-0.175 0.175-0.292 0.317-0.292 0.35 0 0.031 0.086 0.222 0.189 0.428 0.122 0.239 0.214 0.464 0.253 0.622 0.097 0.369 0.103 0.375 0.603 0.375h0.4v0.889h-0.4c-0.497 0-0.506 0.006-0.597 0.361-0.036 0.144-0.136 0.389-0.258 0.631-0.139 0.281-0.192 0.411-0.181 0.458 0.011 0.036 0.142 0.189 0.297 0.342l0.278 0.278-0.311 0.311-0.311 0.314-0.297-0.292c-0.175-0.175-0.317-0.292-0.35-0.292-0.031 0-0.222 0.086-0.428 0.189-0.239 0.122-0.464 0.214-0.622 0.253-0.369 0.097-0.375 0.103-0.375 0.603v0.4h-0.889v-0.4c0-0.494-0.006-0.506-0.361-0.597-0.136-0.036-0.403-0.144-0.631-0.258-0.281-0.139-0.414-0.192-0.458-0.181-0.036 0.011-0.189 0.142-0.342 0.297l-0.278 0.278-0.311-0.311-0.314-0.311 0.292-0.297c0.175-0.175 0.292-0.317 0.292-0.35 0-0.031-0.086-0.222-0.189-0.428-0.122-0.239-0.214-0.464-0.253-0.622-0.097-0.369-0.103-0.375-0.603-0.375h-0.4v-0.889h0.4c0.497 0 0.506-0.006 0.597-0.361 0.036-0.144 0.136-0.389 0.258-0.631 0.139-0.281 0.192-0.411 0.181-0.458-0.011-0.036-0.142-0.189-0.297-0.342l-0.278-0.278 0.311-0.311 0.311-0.314 0.297 0.292c0.175 0.175 0.317 0.292 0.35 0.292 0.031 0 0.222-0.086 0.428-0.189 0.239-0.122 0.464-0.214 0.622-0.253 0.369-0.097 0.375-0.103 0.375-0.603v-0.4h0.889v0.4z"></path>
<path fill="#fff" style="fill: var(--color3, #fff)" d="M15.628 9.986c-0.603 0.106-1.125 0.389-1.531 0.828-0.314 0.336-0.517 0.706-0.639 1.169-0.083 0.306-0.092 0.936-0.017 1.233 0.131 0.517 0.356 0.914 0.742 1.294 0.369 0.367 0.761 0.586 1.267 0.714 0.297 0.075 0.928 0.067 1.233-0.017 0.519-0.139 0.858-0.333 1.236-0.711s0.572-0.714 0.714-1.236c0.089-0.328 0.089-0.933 0-1.269-0.131-0.5-0.35-0.889-0.711-1.247-0.356-0.356-0.75-0.583-1.236-0.708-0.247-0.064-0.825-0.092-1.058-0.050zM16.386 10.431c1.192 0.183 2.028 1.311 1.856 2.497-0.233 1.583-1.997 2.419-3.353 1.586-1.156-0.711-1.414-2.261-0.55-3.311 0.486-0.594 1.275-0.892 2.047-0.772z"></path>
<path fill="#fff" style="fill: var(--color3, #fff)" d="M15.892 11.136c-0.067 0.064-0.069 0.078-0.069 0.472 0 0.347-0.006 0.403-0.044 0.403-0.075 0-0.331 0.281-0.367 0.406-0.078 0.261-0.022 0.469 0.175 0.664 0.283 0.283 0.636 0.283 0.925-0.006 0.078-0.078 0.144-0.164 0.144-0.186 0-0.039 0.067-0.044 0.514-0.044 0.511 0 0.517 0 0.583-0.069 0.092-0.089 0.092-0.217 0-0.306-0.067-0.069-0.072-0.069-0.583-0.069-0.447 0-0.514-0.006-0.514-0.044 0-0.056-0.289-0.344-0.344-0.344-0.039 0-0.044-0.056-0.044-0.403 0-0.394-0.003-0.408-0.069-0.472-0.042-0.044-0.1-0.069-0.153-0.069s-0.111 0.025-0.153 0.069zM16.197 12.469c0.044 0.042 0.069 0.1 0.069 0.153s-0.025 0.111-0.069 0.153c-0.136 0.139-0.375 0.042-0.375-0.153 0-0.114 0.108-0.222 0.222-0.222 0.053 0 0.111 0.025 0.153 0.069z"></path>
<path fill="#fff" style="fill: var(--color3, #fff)" d="M9.669 17.578l-0.069 0.069v3.728l0.136 0.136 4.064-0.006c3.947-0.008 4.067-0.011 4.189-0.061 0.069-0.031 1.017-0.511 2.108-1.069 1.286-0.661 2.025-1.053 2.103-1.122 0.067-0.058 0.156-0.175 0.197-0.264 0.067-0.133 0.078-0.194 0.078-0.381 0-0.203-0.011-0.242-0.114-0.461-0.144-0.3-0.25-0.419-0.464-0.522-0.225-0.108-0.386-0.131-0.592-0.078-0.097 0.025-0.819 0.375-1.739 0.839l-1.578 0.794 0.022-0.092c0.039-0.181 0.019-0.475-0.042-0.608-0.083-0.183-0.239-0.344-0.419-0.433l-0.158-0.078-1.997-0.017-0.133-0.125c-0.075-0.069-0.219-0.167-0.322-0.214l-0.186-0.089-5.014-0.017-0.069 0.069zM12.044 19.511v1.556h-2v-3.111h2v1.556zM14.694 17.989c0.081 0.022 0.167 0.086 0.292 0.214l0.178 0.183 1.078 0.014c1.033 0.014 1.081 0.017 1.153 0.072 0.144 0.108 0.192 0.197 0.192 0.369 0 0.133-0.014 0.178-0.081 0.264-0.142 0.186-0.119 0.183-1.572 0.183h-1.308l-0.067 0.069c-0.044 0.042-0.069 0.1-0.069 0.153s0.025 0.111 0.069 0.153l0.067 0.069h3.261l1.725-0.872c0.947-0.481 1.764-0.881 1.814-0.892 0.122-0.025 0.289 0.028 0.375 0.117 0.094 0.1 0.244 0.417 0.244 0.517 0 0.111-0.064 0.244-0.156 0.328-0.044 0.039-0.981 0.533-2.081 1.097l-2 1.025-5.319 0.014v-3.111h1.044c0.731 0 1.081 0.011 1.161 0.033z"></path>
</symbol>
<symbol id="icon-time-management3" viewBox="0 0 32 32">
<path fill="#ff5966" style="fill: var(--color6, #ff5966)" d="M13.333 4.267h5.333c4.418 0 8 3.582 8 8v5.333c0 4.418-3.582 8-8 8h-5.333c-4.418 0-8-3.582-8-8v-5.333c0-4.418 3.582-8 8-8z"></path>
<path fill="#fff" style="fill: var(--color3, #fff)" d="M9.33 8.417c-0.156 0.056-0.267 0.147-0.35 0.289l-0.078 0.131-0.008 2.161c-0.006 2.156-0.006 2.158 0.053 2.297 0.064 0.15 0.203 0.289 0.347 0.35 0.075 0.031 0.325 0.039 1.219 0.039 1.089 0 1.128-0.003 1.181-0.056 0.069-0.069 0.072-0.197 0.003-0.281l-0.053-0.067-2.233-0.028-0.053-0.067c-0.050-0.061-0.053-0.133-0.053-1.783v-1.719h5.583v0.442c0 0.456 0.025 0.594 0.111 0.642 0.083 0.044 0.189 0.033 0.25-0.028 0.056-0.056 0.058-0.083 0.050-1l-0.008-0.939-0.083-0.122c-0.097-0.136-0.228-0.231-0.372-0.272-0.161-0.044-5.378-0.036-5.506 0.011zM14.819 8.864c0.058 0.056 0.069 0.094 0.069 0.236v0.167h-5.583v-0.156c0-0.133 0.011-0.164 0.081-0.236l0.081-0.081h5.286l0.067 0.069z"></path>
<path fill="#fff" style="fill: var(--color3, #fff)" d="M10.342 10.406c-0.131 0.053-0.156 0.217-0.050 0.319l0.067 0.069h1.753c1.714 0 1.75 0 1.806-0.056 0.083-0.083 0.075-0.231-0.017-0.303-0.072-0.058-0.094-0.058-1.786-0.056-0.942 0-1.739 0.011-1.772 0.025z"></path>
<path fill="#fff" style="fill: var(--color3, #fff)" d="M16.544 10.436c-0.092 0.072-0.1 0.219-0.017 0.303 0.056 0.056 0.092 0.056 2.586 0.056h2.531l0.081 0.081c0.069 0.072 0.081 0.103 0.081 0.236v0.156h-1.483c-1.456 0-1.483 0-1.556 0.058-0.092 0.072-0.1 0.219-0.017 0.303 0.056 0.056 0.092 0.056 1.556 0.056h1.5v1.494c0 1.661 0.008 1.589-0.189 1.644-0.056 0.014-0.261 0.028-0.456 0.028-0.319 0-0.361 0.006-0.411 0.056-0.069 0.069-0.072 0.206-0.003 0.275 0.031 0.031 0.1 0.064 0.156 0.075 0.169 0.031 0.794-0.003 0.903-0.050 0.142-0.061 0.272-0.178 0.342-0.311 0.061-0.114 0.061-0.117 0.069-2.017 0.006-1.447 0-1.933-0.028-2.028-0.047-0.178-0.269-0.394-0.444-0.439-0.094-0.025-0.8-0.033-2.628-0.033-2.486 0-2.497 0-2.572 0.058z"></path>
<path fill="#fff" style="fill: var(--color3, #fff)" d="M10.995 11.308c-0.103 0.056-0.131 0.192-0.056 0.289l0.053 0.072 1.1 0.008c1.072 0.006 1.103 0.006 1.158-0.050 0.083-0.083 0.075-0.231-0.017-0.303-0.072-0.056-0.103-0.058-1.119-0.058-0.858 0.003-1.058 0.008-1.119 0.042z"></path>
<path fill="#fff" style="fill: var(--color3, #fff)" d="M15.667 11.283c-0.828 0.1-1.517 0.353-2.119 0.781-0.292 0.206-0.767 0.681-0.972 0.972-0.35 0.492-0.628 1.156-0.731 1.744-0.072 0.411-0.067 1.072 0.011 1.478 0.303 1.533 1.375 2.756 2.844 3.242 0.578 0.189 1.325 0.256 1.889 0.164l0.103-0.014 0.008 0.708 0.008 0.708 0.083 0.122c0.1 0.139 0.231 0.233 0.378 0.272 0.069 0.019 1.033 0.025 2.794 0.022 2.983-0.008 2.753 0.006 2.95-0.192 0.194-0.194 0.183-0.028 0.192-2.422 0.006-2.156 0.006-2.158-0.053-2.297-0.064-0.15-0.203-0.289-0.347-0.35-0.075-0.031-0.342-0.039-1.317-0.039h-1.225l0.022-0.189c0.036-0.308 0.019-0.914-0.033-1.214-0.197-1.147-0.892-2.2-1.861-2.825-0.453-0.294-1.058-0.531-1.569-0.617-0.264-0.047-0.872-0.078-1.056-0.056zM16.681 11.753c1.333 0.233 2.492 1.239 2.925 2.544 0.139 0.425 0.183 0.725 0.181 1.233-0.003 0.244-0.017 0.489-0.028 0.542l-0.025 0.097h-0.233c-0.142 0-0.233-0.011-0.231-0.028 0.094-0.603 0.050-1.206-0.133-1.739-0.136-0.397-0.444-0.922-0.572-0.972-0.089-0.033-0.2 0.017-0.258 0.122-0.047 0.086-0.067 0.042 0.189 0.458 0.158 0.258 0.286 0.586 0.353 0.911 0.056 0.267 0.064 0.781 0.017 1.058l-0.036 0.203h-0.822c-0.908 0-0.953 0.008-1.125 0.183-0.169 0.172-0.172 0.172-0.186 1.094l-0.014 0.847-0.139 0.036c-0.208 0.056-0.842 0.050-1.108-0.006-0.328-0.072-0.656-0.2-0.911-0.356-0.378-0.231-0.381-0.231-0.464-0.186-0.1 0.056-0.15 0.167-0.117 0.256 0.061 0.161 0.753 0.528 1.206 0.644 0.408 0.103 0.789 0.136 1.158 0.097 0.172-0.017 0.325-0.033 0.344-0.036 0.036-0.006 0.058 0.422 0.022 0.458-0.053 0.053-0.664 0.089-1 0.056-1.728-0.169-3.075-1.394-3.411-3.106-0.075-0.369-0.067-1.044 0.014-1.428 0.286-1.353 1.256-2.436 2.553-2.858 0.228-0.075 0.553-0.142 0.867-0.181 0.175-0.022 0.731 0.008 0.986 0.053zM22.625 16.669c0.058 0.056 0.069 0.094 0.069 0.236v0.167h-5.583v-0.172c0-0.139 0.011-0.183 0.061-0.236l0.058-0.064h5.328l0.067 0.069zM22.695 19.2v1.711l-0.161 0.161h-5.286l-0.067-0.069-0.069-0.067v-3.447h5.583v1.711z"></path>
<path fill="#fff" style="fill: var(--color3, #fff)" d="M15.661 12.183c-1.072 0.122-2 0.722-2.536 1.639-0.558 0.958-0.594 2.128-0.097 3.125 0.272 0.547 0.411 0.689 0.575 0.583 0.036-0.025 0.081-0.075 0.097-0.111 0.033-0.075 0.025-0.094-0.194-0.453-0.272-0.447-0.403-0.928-0.4-1.492 0-0.375 0.039-0.614 0.147-0.933 0.336-0.983 1.219-1.736 2.247-1.917 0.281-0.047 0.797-0.042 1.067 0.017 0.322 0.067 0.653 0.194 0.911 0.353 0.417 0.256 0.372 0.236 0.458 0.189 0.106-0.058 0.156-0.169 0.122-0.258-0.053-0.133-0.586-0.442-1.011-0.583-0.422-0.142-0.972-0.206-1.386-0.158z"></path>
<path fill="#fff" style="fill: var(--color3, #fff)" d="M15.931 13.072c-0.108 0.042-0.139 0.111-0.136 0.314 0 0.167 0.008 0.2 0.064 0.244 0.036 0.031 0.1 0.053 0.142 0.053s0.106-0.022 0.142-0.053c0.056-0.044 0.064-0.078 0.064-0.247 0.003-0.164-0.008-0.208-0.053-0.253-0.069-0.067-0.15-0.089-0.222-0.058z"></path>
<path fill="#fff" style="fill: var(--color3, #fff)" d="M14.597 13.961c-0.086 0.033-0.133 0.106-0.133 0.197 0 0.072 0.069 0.156 0.478 0.564 0.45 0.45 0.478 0.486 0.447 0.544-0.056 0.103-0.042 0.372 0.028 0.514 0.214 0.439 0.856 0.481 1.117 0.069l0.081-0.125 0.844-0.014c0.825-0.014 0.847-0.017 0.906-0.075 0.075-0.075 0.081-0.208 0.011-0.286-0.047-0.053-0.083-0.056-0.894-0.056h-0.842l-0.086-0.139c-0.122-0.2-0.311-0.306-0.547-0.306-0.097 0-0.203 0.014-0.233 0.031-0.053 0.028-0.106-0.017-0.533-0.442-0.261-0.258-0.5-0.478-0.531-0.486s-0.081-0.006-0.111 0.008zM16.158 15.328c0.169 0.158-0.014 0.464-0.233 0.381-0.1-0.036-0.144-0.106-0.147-0.217 0-0.2 0.233-0.303 0.381-0.164z"></path>
<path fill="#fff" style="fill: var(--color3, #fff)" d="M13.625 15.35c-0.069 0.078-0.064 0.211 0.011 0.286 0.050 0.053 0.092 0.061 0.256 0.061 0.172 0 0.203-0.008 0.25-0.067 0.069-0.083 0.067-0.211-0.003-0.281-0.081-0.081-0.442-0.081-0.514 0z"></path>
<path fill="#fff" style="fill: var(--color3, #fff)" d="M15.858 17.347c-0.056 0.044-0.064 0.078-0.064 0.253-0.003 0.186 0.003 0.203 0.075 0.267 0.094 0.081 0.156 0.083 0.25 0.011 0.089-0.069 0.122-0.247 0.078-0.411-0.047-0.172-0.206-0.228-0.339-0.119z"></path>
<path fill="#fff" style="fill: var(--color3, #fff)" d="M18.083 18.239c-0.083 0.083-0.075 0.231 0.017 0.303 0.072 0.058 0.097 0.058 1.781 0.058 1.442 0 1.717-0.006 1.783-0.042 0.128-0.064 0.15-0.183 0.056-0.303l-0.056-0.072h-1.764c-1.725 0-1.761 0-1.817 0.056z"></path>
<path fill="#fff" style="fill: var(--color3, #fff)" d="M18.755 19.128c-0.089 0.083-0.083 0.228 0.014 0.306 0.072 0.056 0.092 0.058 1.15 0.050 1.186-0.008 1.144-0.003 1.181-0.181 0.014-0.072 0.003-0.103-0.053-0.158l-0.072-0.072h-1.081c-1.047 0-1.081 0.003-1.139 0.056z"></path>
<path fill="#fff" style="fill: var(--color3, #fff)" d="M18.089 20.025c-0.086 0.092-0.081 0.222 0.011 0.294 0.072 0.058 0.097 0.058 1.808 0.058h1.733l0.067-0.069c0.039-0.036 0.069-0.1 0.069-0.139s-0.031-0.103-0.069-0.139l-0.067-0.069h-3.494l-0.058 0.064z"></path>
<path fill="#fff" style="fill: var(--color3, #fff)" d="M10.347 12.186c-0.136 0.078-0.161 0.194-0.067 0.314l0.056 0.072h0.986c0.947 0 0.986-0.003 1.039-0.056 0.069-0.069 0.072-0.197 0.003-0.281l-0.053-0.067-0.956-0.006c-0.661-0.006-0.969 0.003-1.008 0.022z"></path>
<path fill="#fff" style="fill: var(--color3, #fff)" d="M19.925 12.406c-0.122 0.050-0.158 0.239-0.064 0.333 0.053 0.053 0.092 0.056 0.594 0.056h0.542l0.056-0.072c0.033-0.042 0.058-0.092 0.058-0.111 0-0.072-0.064-0.172-0.131-0.203-0.081-0.036-0.964-0.039-1.056-0.003z"></path>
<path fill="#fff" style="fill: var(--color3, #fff)" d="M20.514 13.294c-0.136 0.053-0.178 0.228-0.083 0.333 0.044 0.047 0.086 0.056 0.308 0.056 0.244 0 0.261-0.003 0.314-0.072 0.033-0.042 0.058-0.092 0.058-0.111 0-0.081-0.069-0.178-0.147-0.206-0.097-0.033-0.369-0.033-0.45 0z"></path>
<path fill="#fff" style="fill: var(--color3, #fff)" d="M10.18 15.778c-0.128 0.056-0.261 0.178-0.328 0.306-0.061 0.114-0.061 0.114-0.069 2.028-0.008 2.158-0.014 2.081 0.197 2.289 0.214 0.211 0.058 0.2 2.881 0.2 2.508 0 2.519 0 2.594-0.058 0.092-0.072 0.1-0.219 0.017-0.303-0.056-0.056-0.092-0.056-2.586-0.056h-2.531l-0.161-0.161v-2.975l0.614-0.008c0.606-0.008 0.614-0.008 0.667-0.075 0.069-0.083 0.067-0.211-0.003-0.281-0.053-0.053-0.092-0.056-0.669-0.056h-0.614l0.011-0.183c0.017-0.275 0.044-0.289 0.508-0.289 0.383 0 0.525-0.028 0.569-0.111s0.033-0.189-0.028-0.25c-0.050-0.050-0.092-0.056-0.519-0.056-0.322 0.003-0.492 0.014-0.55 0.039z"></path>
<path fill="#fff" style="fill: var(--color3, #fff)" d="M10.947 18.033c-0.067 0.083-0.072 0.119-0.028 0.217 0.053 0.111 0.15 0.133 0.567 0.122 0.361-0.008 0.383-0.011 0.433-0.075 0.072-0.089 0.067-0.203-0.011-0.275-0.061-0.058-0.092-0.061-0.483-0.061h-0.422l-0.056 0.072z"></path>
<path fill="#fff" style="fill: var(--color3, #fff)" d="M10.953 18.922c-0.056 0.056-0.067 0.086-0.053 0.158 0.036 0.172 0.028 0.172 0.85 0.181l0.75 0.008 0.069-0.069c0.089-0.089 0.092-0.208 0.006-0.289-0.064-0.058-0.083-0.061-0.808-0.061h-0.742l-0.072 0.072z"></path>
</symbol>
<symbol id="icon-time-management4" viewBox="0 0 32 32">
<path fill="#29aae3" style="fill: var(--color7, #29aae3)" d="M13.333 4.267h5.333c4.418 0 8 3.582 8 8v5.333c0 4.418-3.582 8-8 8h-5.333c-4.418 0-8-3.582-8-8v-5.333c0-4.418 3.582-8 8-8z"></path>
<path fill="#fff" style="fill: var(--color3, #fff)" d="M15.775 7.867c-0.178 0.053-0.392 0.25-0.469 0.433-0.075 0.175-0.083 0.431-0.019 0.583l0.044 0.106-0.417 0.408c-0.231 0.228-0.431 0.417-0.444 0.419-0.014 0.006-0.078-0.008-0.139-0.033-0.164-0.067-0.428-0.058-0.594 0.022-0.172 0.078-0.35 0.269-0.417 0.442-0.061 0.161-0.047 0.458 0.028 0.617 0.186 0.386 0.667 0.553 1.053 0.364 0.361-0.178 0.531-0.597 0.394-0.981l-0.042-0.117 0.861-0.828 0.144 0.050c0.081 0.028 0.2 0.050 0.269 0.050 0.117 0 0.178-0.017 0.406-0.111l0.086-0.033 2.314 1.772-0.022 0.097c-0.039 0.192-0.017 0.411 0.064 0.569 0.136 0.281 0.389 0.431 0.719 0.431 0.531-0.003 0.906-0.55 0.717-1.050l-0.053-0.133 0.353-0.364 0.353-0.367 0.108 0.039c0.061 0.022 0.189 0.039 0.289 0.039 0.233 0.003 0.419-0.081 0.575-0.258 0.45-0.511 0.094-1.297-0.589-1.297-0.536 0-0.911 0.514-0.742 1.017l0.056 0.164-0.347 0.369c-0.192 0.203-0.35 0.369-0.356 0.369-0.003 0-0.053-0.019-0.106-0.042-0.161-0.067-0.456-0.056-0.617 0.028-0.075 0.036-0.147 0.058-0.164 0.050-0.031-0.019-1.103-0.844-1.875-1.442-0.272-0.208-0.428-0.35-0.422-0.375 0.006-0.022 0.017-0.117 0.025-0.211 0.017-0.247-0.050-0.431-0.228-0.606-0.219-0.217-0.497-0.286-0.797-0.192zM16.181 8.278c0.275 0.117 0.275 0.536 0 0.667-0.25 0.119-0.519-0.053-0.519-0.331 0-0.147 0.056-0.244 0.181-0.319 0.106-0.067 0.208-0.069 0.339-0.017zM21.567 9.214c0.156 0.122 0.2 0.328 0.1 0.489-0.147 0.244-0.528 0.228-0.647-0.028-0.058-0.119-0.058-0.186-0.008-0.311 0.083-0.194 0.392-0.278 0.556-0.15zM14.325 10.278c0.075 0.081 0.092 0.122 0.092 0.225 0 0.236-0.139 0.383-0.364 0.383-0.3 0-0.475-0.367-0.283-0.592 0.097-0.117 0.161-0.142 0.325-0.128 0.117 0.008 0.153 0.025 0.231 0.111zM19.789 11.047c0.283 0.222 0.15 0.664-0.203 0.664-0.225 0-0.375-0.144-0.375-0.358 0-0.228 0.139-0.361 0.375-0.364 0.089 0 0.15 0.017 0.203 0.058z"></path>
<path fill="#fff" style="fill: var(--color3, #fff)" d="M15.394 10.886c-0.033 0.019-0.083 0.067-0.111 0.103-0.042 0.064-0.047 0.189-0.056 1.439-0.006 1.142-0.014 1.369-0.044 1.358-0.022-0.008-0.092-0.031-0.156-0.050-0.061-0.019-0.125-0.056-0.139-0.081-0.053-0.097-0.203-0.139-0.497-0.139h-0.278l-0.117-0.261 0.194-0.194c0.222-0.228 0.253-0.281 0.253-0.425 0-0.15-0.142-0.339-0.467-0.622-0.258-0.228-0.408-0.206-0.728 0.103l-0.192 0.186-0.133-0.056-0.133-0.053-0.014-0.319c-0.014-0.344-0.036-0.4-0.178-0.486-0.072-0.044-0.144-0.053-0.461-0.053-0.422 0-0.5 0.025-0.603 0.178-0.056 0.083-0.064 0.128-0.064 0.389v0.294l-0.119 0.047c-0.064 0.028-0.128 0.050-0.142 0.050s-0.122-0.092-0.239-0.206c-0.325-0.317-0.442-0.314-0.806 0.028-0.319 0.303-0.417 0.492-0.331 0.658 0.017 0.033 0.119 0.15 0.225 0.258l0.194 0.197-0.050 0.144-0.053 0.142h-0.292c-0.239 0-0.308 0.011-0.381 0.056-0.169 0.103-0.189 0.164-0.189 0.597 0 0.342 0.008 0.4 0.056 0.486 0.089 0.153 0.203 0.194 0.528 0.194h0.281l0.047 0.131 0.047 0.128-0.194 0.2c-0.269 0.281-0.311 0.417-0.181 0.608 0.039 0.056 0.069 0.114 0.069 0.125 0 0.014-0.042 0.136-0.094 0.269-0.294 0.767-0.347 1.714-0.144 2.519 0.403 1.589 1.681 2.803 3.289 3.131 0.983 0.2 2.106 0.014 2.947-0.489 0.483-0.286 0.594-0.414 0.483-0.561-0.097-0.131-0.197-0.117-0.489 0.072-0.342 0.219-0.55 0.322-0.889 0.436-0.478 0.158-0.7 0.194-1.228 0.194s-0.75-0.036-1.228-0.194c-1.342-0.447-2.319-1.608-2.553-3.042-0.053-0.319-0.036-1.047 0.031-1.347 0.039-0.178 0.169-0.608 0.2-0.661 0.008-0.014 0.042 0.003 0.075 0.033 0.086 0.081 0.219 0.117 0.322 0.086 0.047-0.014 0.083-0.019 0.083-0.014s-0.036 0.119-0.081 0.256c-0.142 0.422-0.178 0.686-0.161 1.189 0.017 0.536 0.089 0.847 0.297 1.283 0.569 1.197 1.717 1.925 3.022 1.925 1.611 0 2.975-1.153 3.272-2.764 0.067-0.372 0.042-1.017-0.053-1.383-0.156-0.589-0.442-1.086-0.878-1.522-0.147-0.147-0.367-0.333-0.486-0.414-0.189-0.125-0.55-0.311-0.717-0.369-0.042-0.014-0.044-0.031-0.022-0.089 0.017-0.042 0.028-0.156 0.028-0.253 0-0.211-0.028-0.206 0.344-0.050 0.461 0.194 0.872 0.483 1.256 0.878 0.511 0.531 0.842 1.158 1.003 1.911 0.069 0.333 0.069 1.142-0.003 1.469-0.117 0.542-0.3 0.964-0.614 1.436-0.119 0.178-0.208 0.339-0.208 0.378 0 0.089 0.108 0.189 0.206 0.189s0.206-0.108 0.394-0.394c0.367-0.556 0.594-1.183 0.692-1.919l0.017-0.131h4.528l0.067-0.069c0.089-0.086 0.089-0.192 0-0.278-0.061-0.061-0.089-0.069-0.292-0.069h-0.222v-0.889c0-0.853-0.003-0.892-0.056-0.944-0.083-0.083-0.231-0.075-0.303 0.017-0.056 0.072-0.058 0.106-0.058 0.944v0.872h-0.75l0.006-2.786 0.008-2.783 0.736-0.017v1.483c0 1.458 0 1.486 0.058 1.558 0.072 0.092 0.219 0.1 0.303 0.017 0.056-0.056 0.056-0.092 0.056-1.647 0-1.528-0.003-1.592-0.056-1.678-0.081-0.131-0.197-0.153-0.803-0.142-0.567 0.008-0.608 0.019-0.683 0.178-0.036 0.078-0.042 0.464-0.042 2.953v2.864h-0.194v-2.244c0-2.181-0.003-2.244-0.056-2.331-0.031-0.050-0.089-0.1-0.131-0.111-0.042-0.014-0.325-0.022-0.625-0.022-0.511 0-0.55 0.003-0.625 0.058-0.042 0.031-0.094 0.089-0.111 0.125-0.028 0.050-0.036 0.581-0.036 2.294v2.231h-0.194v-2.808c0-2.011-0.008-2.822-0.031-2.867-0.078-0.153-0.103-0.158-0.747-0.158-0.508 0-0.608 0.006-0.664 0.044-0.139 0.1-0.142 0.125-0.142 1.669l-0.003 1.439-0.094-0.111-0.097-0.111v-0.986c0-1.117 0-1.111-0.192-1.111-0.072 0-0.122 0.019-0.158 0.058-0.050 0.056-0.053 0.117-0.061 0.861-0.006 0.442-0.014 0.803-0.019 0.803-0.008 0-0.072-0.042-0.144-0.094-0.075-0.053-0.233-0.15-0.356-0.217l-0.222-0.122-0.008-1.353-0.006-1.353h0.744l0.011 0.358c0.008 0.306 0.017 0.367 0.061 0.417 0.069 0.075 0.219 0.078 0.294 0.003 0.050-0.050 0.056-0.092 0.056-0.531v-0.475l-0.189-0.189h-0.578c-0.411 0.003-0.6 0.011-0.644 0.036zM12.353 11.919c0.017 0.361 0.036 0.458 0.125 0.558 0.044 0.050 0.094 0.094 0.111 0.094 0.014 0 0.111 0.036 0.217 0.083 0.317 0.139 0.417 0.108 0.736-0.219l0.136-0.142 0.161 0.158c0.089 0.089 0.161 0.172 0.161 0.189s-0.089 0.117-0.194 0.222c-0.206 0.203-0.256 0.303-0.219 0.444 0.044 0.178 0.172 0.447 0.25 0.528 0.081 0.081 0.089 0.083 0.4 0.092l0.319 0.011v0.494h-0.297c-0.4 0-0.436 0.022-0.569 0.35-0.167 0.406-0.161 0.431 0.103 0.703 0.114 0.119 0.208 0.225 0.208 0.239s-0.072 0.097-0.158 0.186l-0.158 0.161-0.211-0.208c-0.219-0.211-0.297-0.253-0.453-0.228-0.097 0.014-0.422 0.147-0.517 0.214-0.092 0.064-0.139 0.236-0.142 0.506v0.239l-0.114 0.019c-0.061 0.011-0.167 0.011-0.233 0.003l-0.119-0.019-0.011-0.303c-0.006-0.253-0.017-0.314-0.067-0.381-0.075-0.097-0.506-0.286-0.658-0.286-0.097 0-0.131 0.022-0.325 0.211-0.253 0.244-0.267 0.247-0.458 0.033l-0.125-0.139 0.206-0.219c0.275-0.286 0.283-0.331 0.136-0.686-0.147-0.358-0.172-0.378-0.572-0.394l-0.311-0.014-0.008-0.244-0.008-0.242h0.3c0.422 0 0.436-0.008 0.617-0.436 0.133-0.311 0.117-0.375-0.172-0.669l-0.2-0.203 0.35-0.339 0.217 0.214c0.278 0.278 0.342 0.289 0.708 0.136 0.336-0.142 0.361-0.181 0.372-0.544 0.006-0.156 0.014-0.3 0.019-0.319 0.011-0.025 0.072-0.033 0.228-0.028l0.217 0.008 0.006 0.167zM18.167 14.975c0 2.581-0.003 2.708-0.050 2.708-0.042 0-0.053-0.044-0.083-0.314-0.061-0.578-0.208-1.058-0.481-1.569l-0.136-0.256v-3.278h0.75v2.708zM19.944 15.531v2.153h-0.75v-2.133c0-1.175 0.008-2.144 0.019-2.153 0.008-0.011 0.178-0.019 0.375-0.019h0.356v2.153zM14.633 15.006c0.128 0.036 0.278 0.092 0.336 0.119 0.094 0.050 0.103 0.064 0.092 0.147-0.022 0.194 0.208 0.308 0.353 0.178 0.056-0.050 0.061-0.050 0.206 0.064 0.161 0.122 0.403 0.369 0.531 0.536l0.078 0.103-0.058 0.075c-0.078 0.1-0.072 0.192 0.014 0.278 0.058 0.061 0.086 0.069 0.167 0.053 0.092-0.017 0.097-0.011 0.15 0.103 0.081 0.181 0.186 0.572 0.208 0.764l0.019 0.175h-0.322c-0.286 0-0.328 0.006-0.378 0.056-0.083 0.083-0.075 0.231 0.017 0.303 0.064 0.050 0.114 0.058 0.375 0.058 0.294 0 0.303 0.003 0.303 0.061 0 0.128-0.106 0.569-0.186 0.772l-0.078 0.208-0.108-0.008c-0.2-0.019-0.308 0.178-0.183 0.336l0.056 0.069-0.106 0.136c-0.136 0.172-0.344 0.378-0.517 0.514l-0.136 0.108-0.061-0.058c-0.142-0.131-0.369-0.014-0.339 0.178 0.014 0.092 0.011 0.094-0.144 0.164-0.167 0.072-0.539 0.169-0.758 0.2l-0.133 0.017v-0.317c0-0.278-0.006-0.322-0.056-0.375-0.075-0.081-0.231-0.081-0.306-0.006-0.050 0.050-0.056 0.092-0.056 0.375 0 0.275-0.006 0.319-0.044 0.319-0.117 0-0.619-0.122-0.797-0.192-0.197-0.081-0.2-0.081-0.192-0.175 0.019-0.2-0.214-0.331-0.342-0.189-0.028 0.031-0.064 0.044-0.086 0.033-0.119-0.067-0.431-0.356-0.569-0.528l-0.164-0.206 0.056-0.069c0.072-0.092 0.069-0.175-0.003-0.269-0.050-0.064-0.078-0.075-0.175-0.067l-0.114 0.008-0.081-0.208c-0.078-0.203-0.183-0.644-0.183-0.772 0-0.058 0.008-0.061 0.303-0.061 0.261 0 0.311-0.008 0.375-0.058 0.092-0.072 0.1-0.219 0.017-0.303-0.050-0.050-0.092-0.056-0.378-0.056h-0.325l0.019-0.161c0.031-0.258 0.128-0.586 0.256-0.861 0.125-0.272 0.219-0.422 0.264-0.422 0.014 0 0.025 0.133 0.025 0.297 0 0.333 0.039 0.442 0.186 0.517 0.108 0.056 0.456 0.081 0.717 0.050 0.203-0.025 0.228-0.033 0.311-0.125l0.092-0.1v-0.303c0-0.331 0-0.328 0.183-0.4l0.114-0.044 0.206 0.208c0.325 0.328 0.45 0.328 0.794 0.003 0.286-0.269 0.369-0.389 0.369-0.525 0-0.147-0.031-0.197-0.256-0.428l-0.192-0.197 0.050-0.103 0.050-0.106 0.153 0.019c0.083 0.011 0.256 0.050 0.383 0.086z"></path>
<path fill="#fff" style="fill: var(--color3, #fff)" d="M11.769 12.836c-0.611 0.167-1.022 0.706-1.022 1.339-0.006 1.233 1.472 1.858 2.35 0.997 0.294-0.289 0.453-0.697 0.419-1.092-0.047-0.597-0.464-1.094-1.036-1.244-0.192-0.050-0.528-0.050-0.711 0zM12.533 13.292c0.314 0.15 0.533 0.458 0.567 0.797 0.036 0.333-0.144 0.711-0.422 0.897-0.275 0.181-0.65 0.219-0.933 0.092-0.172-0.075-0.4-0.289-0.483-0.453-0.211-0.417-0.078-0.975 0.292-1.231 0.203-0.142 0.356-0.186 0.614-0.175 0.172 0.008 0.272 0.028 0.367 0.072z"></path>
<path fill="#fff" style="fill: var(--color3, #fff)" d="M11.875 13.617c-0.331 0.181-0.45 0.528-0.292 0.844 0.281 0.553 1.103 0.381 1.158-0.242 0.011-0.139 0.003-0.181-0.067-0.314-0.119-0.225-0.264-0.317-0.517-0.325-0.144-0.006-0.222 0.003-0.283 0.036zM12.278 14.050c0.161 0.175-0.089 0.433-0.272 0.278-0.089-0.072-0.103-0.175-0.033-0.264 0.078-0.097 0.222-0.103 0.306-0.014z"></path>
<path fill="#fff" style="fill: var(--color3, #fff)" d="M13.675 17.661c-0.122 0.136-0.925 1.533-0.925 1.611 0 0.108 0.089 0.189 0.206 0.189 0.122 0 0.133-0.014 0.572-0.758 0.186-0.317 0.35-0.583 0.364-0.592 0.014-0.006 0.219 0.103 0.461 0.242 0.481 0.281 0.583 0.311 0.678 0.194 0.069-0.086 0.067-0.178-0.008-0.264-0.097-0.103-1.122-0.683-1.214-0.683-0.044 0-0.1 0.028-0.133 0.061z"></path>
<path fill="#fff" style="fill: var(--color3, #fff)" d="M18.653 18.586c-0.128 0.125-0.1 0.186 0.228 0.517l0.297 0.303-0.297 0.303c-0.328 0.331-0.361 0.406-0.233 0.525 0.136 0.128 0.194 0.094 0.625-0.336 0.522-0.522 0.522-0.461-0.003-0.983-0.433-0.433-0.486-0.461-0.617-0.328z"></path>
<path fill="#fff" style="fill: var(--color3, #fff)" d="M20.097 18.586c-0.128 0.125-0.1 0.186 0.228 0.519l0.297 0.3-0.283 0.286c-0.317 0.317-0.356 0.4-0.256 0.528 0.042 0.053 0.083 0.075 0.15 0.075 0.078 0 0.139-0.050 0.5-0.414 0.381-0.383 0.411-0.422 0.394-0.494-0.011-0.050-0.164-0.222-0.417-0.475-0.433-0.431-0.483-0.458-0.614-0.325z"></path>
<path fill="#fff" style="fill: var(--color3, #fff)" d="M21.595 18.55c-0.075 0.036-0.131 0.15-0.106 0.228 0.008 0.031 0.144 0.186 0.297 0.342l0.281 0.286-0.264 0.269c-0.147 0.15-0.281 0.3-0.3 0.333-0.069 0.133 0.039 0.286 0.206 0.286 0.069 0 0.144-0.061 0.478-0.397 0.325-0.328 0.397-0.414 0.397-0.481 0-0.064-0.072-0.15-0.411-0.489-0.414-0.414-0.453-0.439-0.578-0.378z"></path>
</symbol>
<symbol id="icon-twitter" viewBox="0 0 39 32">
<path d="M37.564 3.909c-1.356 0.601-2.816 1.008-4.345 1.192 1.562-0.937 2.761-2.418 3.325-4.184-1.462 0.867-3.080 1.496-4.805 1.834-1.38-1.47-3.345-2.388-5.521-2.388-4.178 0-7.566 3.386-7.566 7.563 0 0.595 0.069 1.171 0.197 1.725-6.286-0.315-11.859-3.328-15.59-7.903-0.653 1.117-1.024 2.416-1.024 3.803 0 2.624 1.336 4.939 3.364 6.294-1.241-0.039-2.408-0.379-3.425-0.946 0 0.032 0 0.064 0 0.096 0 3.664 2.605 6.72 6.067 7.415-0.636 0.173-1.302 0.265-1.994 0.265-0.486 0-0.961-0.047-1.423-0.137 0.963 3.005 3.757 5.192 7.067 5.254-2.59 2.027-5.853 3.236-9.397 3.236-0.61 0-1.213-0.034-1.805-0.105 3.347 2.146 7.323 3.398 11.597 3.398 13.913 0 21.523-11.524 21.523-21.518 0-0.33-0.009-0.653-0.022-0.978 1.477-1.066 2.761-2.399 3.775-3.914v-0.002z"></path>
</symbol>
<symbol id="icon-youtube" viewBox="0 0 40 32">
<path d="M37.427 3.228c-1.377-1.605-2.928-1.727-3.744-1.791-0.067-0.005-0.129-0.010-0.186-0.015-5.488-0.417-13.754-0.486-13.754-0.486s-8.266 0.069-13.754 0.486c-0.037 0.003-0.075 0.007-0.116 0.010-0.795 0.070-2.396 0.21-3.814 1.796-1.22 1.32-1.558 4.307-1.558 4.307s-0.407 3.543-0.407 7.086v3.265c0 3.543 0.407 7.016 0.407 7.016s0.407 2.987 1.558 4.307c1.21 1.41 2.733 1.629 3.735 1.774 0.232 0.033 0.436 0.063 0.601 0.102 3.117 0.347 13.348 0.417 13.348 0.417s8.266 0 13.754-0.486c0.037-0.003 0.075-0.007 0.116-0.010 0.795-0.070 2.396-0.21 3.814-1.796 1.152-1.32 1.558-4.307 1.558-4.307s0.407-3.543 0.407-7.016v-3.265c0-3.543-0.407-7.086-0.407-7.086s-0.407-2.987-1.558-4.307zM15 24.277v-15.074l12.874 7.711-12.874 7.363z"></path>
</symbol>
<symbol id="icon-closex" viewBox="0 0 32 32">
<path d="M23.734 10.304l-1.504-1.504-5.963 5.962-5.962-5.962-1.504 1.504 5.962 5.962-5.962 5.963 1.504 1.504 5.962-5.963 5.963 5.963 1.504-1.504-5.963-5.963 5.963-5.962z"></path>
</symbol>
<symbol id="icon-menuburger" viewBox="0 0 32 32">
<path d="M6.4 11.734v-2.134h19.2v2.134h-19.2zM6.4 17.066h19.2v-2.133h-19.2v2.133zM6.4 22.4h19.2v-2.134h-19.2v2.134z"></path>
</symbol>
<symbol id="icon-iMac" viewBox="0 0 39 32">
<path fill="#c4c4c4" style="fill: var(--color1, #c4c4c4)" opacity="0.009999999776482582" d="M33.593 31.021c0 0.062-6.333 0.112-14.145 0.112s-14.145-0.050-14.145-0.112c0-0.062 6.333-0.112 14.145-0.112s14.145 0.050 14.145 0.112z"></path>
<path fill="#f1f1f1" style="fill: var(--color2, #f1f1f1)" d="M0.4 0h38.096c0.152 0 0.275 0.123 0.275 0.275v26.473c0 0.152-0.123 0.275-0.275 0.275h-38.096c-0.152 0-0.275-0.123-0.275-0.275v-26.473c0-0.152 0.123-0.275 0.275-0.275z"></path>
<path fill="#f5f5f5" style="fill: var(--color3, #f5f5f5)" d="M0.126 23.172h38.646v3.575c0 0.152-0.123 0.275-0.275 0.275h-38.096c-0.152 0-0.275-0.123-0.275-0.275v-3.575z"></path>
<path fill="#000" style="fill: var(--color4, #000)" d="M12.941 31.778c-0.069-0.069-0.062-0.273 0.087-0.385h12.841c0.149 0.112 0.161 0.273 0.087 0.385-0.077 0.116-0.459 0.141-0.658 0.137h-11.698c-0.199 0.004-0.546-0.025-0.658-0.137z"></path>
<path fill="#f5f5f5" style="fill: var(--color3, #f5f5f5)" d="M15.053 27.022c0 0-0.385 2.769-0.497 3.067s-0.658 0.621-0.758 0.695c-0.099 0.074-0.447 0.323-0.596 0.435s-0.333 0.241-0.261 0.385c0.062 0.124 0.459 0.141 0.658 0.137h11.698c0.199 0.004 0.596-0.012 0.658-0.137 0.072-0.144-0.112-0.273-0.261-0.385s-0.497-0.36-0.596-0.435c-0.099-0.074-0.646-0.397-0.758-0.695s-0.497-3.067-0.497-3.067h-8.792z"></path>
<path fill="#000" style="fill: var(--color4, #000)" d="M15.053 27.022c0 0-0.385 2.769-0.497 3.067s-0.658 0.621-0.758 0.695c-0.099 0.074-0.447 0.323-0.596 0.435s-0.333 0.241-0.261 0.385c0.062 0.124 0.459 0.141 0.658 0.137h11.698c0.199 0.004 0.596-0.012 0.658-0.137 0.072-0.144-0.112-0.273-0.261-0.385s-0.497-0.36-0.596-0.435c-0.099-0.074-0.646-0.397-0.758-0.695s-0.497-3.067-0.497-3.067h-8.792z"></path>
<path fill="#000" style="fill: var(--color4, #000)" d="M15.053 27.022c0 0-0.385 2.769-0.497 3.067s-0.658 0.621-0.758 0.695c-0.099 0.074-0.447 0.323-0.596 0.435s-0.333 0.241-0.261 0.385c0.062 0.124 0.459 0.141 0.658 0.137h11.698c0.199 0.004 0.596-0.012 0.658-0.137 0.072-0.144-0.112-0.273-0.261-0.385s-0.497-0.36-0.596-0.435c-0.099-0.074-0.646-0.397-0.758-0.695s-0.497-3.067-0.497-3.067h-8.792z"></path>
<path fill="#000" style="fill: var(--color4, #000)" d="M15.053 27.022c0 0-0.385 2.769-0.497 3.067s-0.658 0.621-0.758 0.695c-0.099 0.074-0.447 0.323-0.596 0.435s-0.333 0.241-0.261 0.385c0.062 0.124 0.459 0.141 0.658 0.137h11.698c0.199 0.004 0.596-0.012 0.658-0.137 0.072-0.144-0.112-0.273-0.261-0.385s-0.497-0.36-0.596-0.435c-0.099-0.074-0.646-0.397-0.758-0.695s-0.497-3.067-0.497-3.067h-8.792z"></path>
<path fill="#000" style="fill: var(--color4, #000)" d="M1.417 1.415h36.050v22.326h-36.050v-22.326z"></path>
</symbol>
<symbol id="icon-laptop-and-tel" viewBox="0 0 62 32">
<path fill="#000" style="fill: var(--color4, #000)" d="M0.24 28.679h51.94v3.3h-51.94v-3.3z"></path>
<path fill="#000" style="fill: var(--color4, #000)" d="M0.24 28.679h51.94v3.3h-51.94v-3.3z"></path>
<path fill="#000" style="fill: var(--color4, #000)" d="M0.24 28.679h51.94v3.3h-51.94v-3.3z"></path>
<path fill="#000" style="fill: var(--color4, #000)" d="M7.812 0.047h36.609c0.801 0 1.026 0 1.37 0.116 0.408 0.149 0.73 0.472 0.88 0.879 0.116 0.345 0.116 0.569 0.116 1.37 0 2.218 0 24.313 0 24.313 0 0.801 0 1.026-0.116 1.37-0.149 0.408-0.472 0.731-0.88 0.88-0.345 0.116-0.569 0.116-1.37 0.116-2.218 0-36.609 0-36.609 0-0.801 0-1.026 0-1.37-0.116-0.408-0.149-0.73-0.472-0.879-0.88-0.116-0.345-0.116-0.569-0.116-1.37 0-2.218 0-24.313 0-24.313 0-0.801 0-1.025 0.116-1.37 0.149-0.408 0.472-0.73 0.879-0.879 0.345-0.116 0.569-0.116 1.37-0.116z"></path>
<path fill="#f2f2f2" style="fill: var(--color5, #f2f2f2)" d="M26.047 1.036c0.085 0 0.153 0.069 0.153 0.153s-0.069 0.153-0.153 0.153c-0.084 0-0.153-0.069-0.153-0.153s0.069-0.153 0.153-0.153z"></path>
<path fill="#fff" style="fill: var(--color6, #fff)" d="M0.831 28.125h50.597v0.282h-50.597v-0.282z"></path>
<path fill="#000" style="fill: var(--color4, #000)" d="M0.831 28.125h50.597v0.282h-50.597v-0.282z"></path>
<path fill="#000" style="fill: var(--color4, #000)" opacity="0.10000000149011612" d="M49.544 28.125h1.884v0.282h-1.884v-0.282z"></path>
<path fill="#000" style="fill: var(--color4, #000)" opacity="0.10000000149011612" d="M0.831 28.125h1.884v0.282h-1.884v-0.282z"></path>
<path fill="#fff" style="fill: var(--color6, #fff)" d="M0.831 28.408h50.597c-0.299 0.187-2.951 0.953-11.778 0.754-0.78 0-22.747-0.023-27.56-0.023-5.586 0-7.899 0.022-10.009-0.384-0.739-0.142-1.109-0.26-1.25-0.346z"></path>
<path fill="#000" style="fill: var(--color4, #000)" d="M0.831 28.408h50.597c-0.299 0.187-2.951 0.953-11.778 0.754-0.78 0-22.747-0.023-27.56-0.023-5.586 0-7.899 0.022-10.009-0.384-0.739-0.142-1.109-0.26-1.25-0.346z"></path>
<path fill="#000" style="fill: var(--color4, #000)" d="M0.831 28.408h50.597c-0.299 0.187-2.951 0.953-11.778 0.754-0.78 0-22.747-0.023-27.56-0.023-5.586 0-7.899 0.022-10.009-0.384-0.739-0.142-1.109-0.26-1.25-0.346z"></path>
<path fill="#000" style="fill: var(--color4, #000)" d="M0.831 28.408h50.597c-0.299 0.187-2.951 0.953-11.778 0.754-0.78 0-22.747-0.023-27.56-0.023-5.586 0-7.899 0.022-10.009-0.384-0.739-0.142-1.109-0.26-1.25-0.346z"></path>
<path fill="#000" style="fill: var(--color4, #000)" d="M0.831 28.408h50.597c-0.299 0.187-2.951 0.953-11.778 0.754-0.78 0-22.747-0.023-27.56-0.023-5.586 0-7.899 0.022-10.009-0.384-0.739-0.142-1.109-0.26-1.25-0.346z"></path>
<path fill="#000" style="fill: var(--color4, #000)" d="M0.831 28.408h50.597c-0.299 0.187-2.951 0.953-11.778 0.754-0.78 0-22.747-0.023-27.56-0.023-5.586 0-7.899 0.022-10.009-0.384-0.739-0.142-1.109-0.26-1.25-0.346z"></path>
<path fill="#fff" style="fill: var(--color6, #fff)" d="M21.278 28.126h9.681v0.259c0 0.099-0.942 0.118-0.942 0.118h-7.797c0 0-0.942-0.018-0.942-0.118v-0.259z"></path>
<path fill="#000" style="fill: var(--color4, #000)" opacity="0.07000000029802322" d="M21.277 28.125h0.942v0.377c0 0-0.942-0.018-0.942-0.118s0-0.259 0-0.259z"></path>
<path fill="#000" style="fill: var(--color4, #000)" opacity="0.07000000029802322" d="M30.959 28.125h-0.942v0.377c0 0 0.942-0.018 0.942-0.118s0-0.259 0-0.259z"></path>
<path fill="#000" style="fill: var(--color4, #000)" d="M6.993 1.921h38.27v24.619h-38.27v-24.619z"></path>
<path fill="#c4c4c4" style="fill: var(--color1, #c4c4c4)" opacity="0.009999999776482582" d="M61.441 28.52c0 0.073-2.070 0.133-4.623 0.133s-4.623-0.059-4.623-0.133c0-0.073 2.070-0.133 4.623-0.133s4.623 0.059 4.623 0.133z"></path>
<path fill="#c4c4c4" style="fill: var(--color1, #c4c4c4)" opacity="0.009999999776482582" d="M54.012 28.576h5.611c0.166 0 0.325-0.033 0.469-0.093 0 0-1.946-0.98-3.266-0.97s-3.285 0.97-3.285 0.97c0.145 0.060 0.303 0.093 0.469 0.093z"></path>
<path fill="#f9fafa" style="fill: var(--color7, #f9fafa)" d="M52.783 13.496c0-0.679 0.55-1.229 1.229-1.229h5.611c0.679 0 1.229 0.55 1.229 1.229v13.852c0 0.679-0.55 1.229-1.229 1.229h-5.611c-0.679 0-1.229-0.55-1.229-1.229v-13.852z"></path>
<path fill="#c8c8c8" style="fill: var(--color8, #c8c8c8)" opacity="0.4000000059604645" d="M56.255 12.906c0-0.031 0.026-0.056 0.057-0.056l0.703-0c0.032-0 0.057 0.025 0.057 0.056v0.019c0 0.031-0.025 0.056-0.057 0.056l-0.703 0c-0.032 0-0.057-0.025-0.057-0.056v-0.019z"></path>
<path fill="#c8c8c8" style="fill: var(--color8, #c8c8c8)" opacity="0.5461959838867188" d="M57.262 12.916c0-0.036 0.030-0.066 0.067-0.066s0.067 0.029 0.067 0.066-0.030 0.066-0.067 0.066c-0.037 0-0.067-0.029-0.067-0.066z"></path>
<path fill="#f5f5f5" style="fill: var(--color3, #f5f5f5)" d="M53.258 12.699h7.12v15.417h-7.12v-15.417z"></path>
<path fill="#ebebeb" style="fill: var(--color9, #ebebeb)" d="M53.277 12.704h7.101v15.531h-7.101v-15.531z"></path>
<path fill="#000" style="fill: var(--color4, #000)" d="M53.277 12.704h7.101v15.531h-7.101v-15.531z"></path>
<path fill="#000" style="fill: var(--color4, #000)" d="M53.187 12.591h7.114v15.396h-7.114v-15.396z"></path>
</symbol>
<symbol id="icon-tel" viewBox="0 0 18 32">
<path fill="#c4c4c4" style="fill: var(--color1, #c4c4c4)" opacity="0.009999999776482582" d="M17.901 31.104c0 0.139-3.907 0.251-8.726 0.251s-8.726-0.112-8.726-0.251c0-0.139 3.907-0.251 8.726-0.251s8.726 0.112 8.726 0.251z"></path>
<path fill="#c4c4c4" style="fill: var(--color1, #c4c4c4)" opacity="0.009999999776482582" d="M3.88 31.211h10.591c0.314 0 0.613-0.062 0.886-0.175 0 0-3.673-1.849-6.164-1.831s-6.199 1.831-6.199 1.831c0.273 0.113 0.572 0.175 0.886 0.175z"></path>
<path fill="#f9fafa" style="fill: var(--color7, #f9fafa)" d="M1.56 2.749c0-1.281 1.038-2.319 2.319-2.319h10.591c1.281 0 2.319 1.038 2.319 2.319v26.143c0 1.281-1.038 2.319-2.319 2.319h-10.591c-1.281 0-2.319-1.038-2.319-2.319v-26.143z"></path>
<path fill="#c8c8c8" style="fill: var(--color8, #c8c8c8)" opacity="0.4000000059604645" d="M8.113 1.62c-0-0.050 0.041-0.091 0.092-0.091h1.357c0.051 0 0.092 0.041 0.092 0.091l0 0.067c0 0.050-0.041 0.091-0.092 0.091h-1.357c-0.051 0-0.092-0.041-0.092-0.091l-0-0.067z"></path>
<path fill="#c8c8c8" style="fill: var(--color8, #c8c8c8)" opacity="0.5461959838867188" d="M10.014 1.635c-0-0.058 0.048-0.106 0.107-0.106h0.036c0.059 0 0.108 0.047 0.108 0.106l0 0.036c0 0.058-0.048 0.106-0.107 0.106h-0.036c-0.059 0-0.108-0.047-0.108-0.106l-0-0.036z"></path>
<path fill="#f5f5f5" style="fill: var(--color3, #f5f5f5)" d="M2.456 1.245h13.438v29.098h-13.438v-29.098z"></path>
<path fill="#000" style="fill: var(--color4, #000)" d="M2.17 1.432h13.438v29.105h-13.438v-29.105z"></path>
</symbol>
<symbol id="icon-Ellipse" viewBox="0 0 70 32">
   <path d="M1.464 17.686c4.141-9.069 17.098-14.030 31.961-16.383 14.39-2.278 31.567-2.312 35.726 6.964 1.054 6.656-6.613 17.204-28.685 21.365-30.684 5.786-44.62 0.358-39.002-11.947z"></path>
</symbol>
</defs>
</svg>